<svg viewBox="0 0 900 370" role="img" aria-label="Energy levels of the worked example" xmlns="http://www.w3.org/2000/svg" width="900" height="370"><style>
text { font-family: system-ui, -apple-system, "Segoe UI", sans-serif; }
.t-mono { font-family: ui-monospace, SFMono-Regular, Menlo, monospace; font-size: 12.5px; fill: #0b0b0b; }
.t-head { font-size: 14px; fill: #0b0b0b; font-weight: 600; }
.t-small { font-size: 12px; fill: #0b0b0b; }
.t-muted { fill: #52514e; }
.t-label { fill: #52514e; font-style: italic; }
.t-bold { font-weight: 700; }
</style><rect width="100%" height="100%" rx="10" fill="#ffffff"/><defs><marker id="arr" viewBox="0 0 10 10" refX="9" refY="5" markerWidth="7" markerHeight="7" orient="auto-start-reverse"><path d="M0,0 L10,5 L0,10 z" fill="#52514e"/></marker></defs><rect x="20" y="138.0" width="190" height="192.0" rx="10" fill="#2a78d61f" stroke="none"/><line x1="40" y1="300.0" x2="180" y2="300.0" stroke="#2a78d6" stroke-width="4" stroke-linecap="round"/><text x="110" y="290.0" class="t-mono t-bold" text-anchor="middle">|0_a 0_b⟩</text><text x="110" y="320.0" class="t-small t-muted" text-anchor="middle">q = 0</text><line x1="40" y1="188.0" x2="180" y2="188.0" stroke="#2a78d6" stroke-width="4" stroke-linecap="round"/><text x="110" y="178.0" class="t-mono t-bold" text-anchor="middle">|1_a 0_b⟩</text><text x="110" y="208.0" class="t-small t-muted" text-anchor="middle">q = 1</text><line x1="260" y1="132.0" x2="400" y2="132.0" stroke="#9a988f" stroke-width="2.5" stroke-linecap="round"/><text x="330" y="122.0" class="t-mono" text-anchor="middle">|0_a 1_b⟩</text><text x="330" y="152.0" class="t-small t-muted" text-anchor="middle">Ω</text><line x1="480" y1="97.0" x2="620" y2="97.0" stroke="#9a988f" stroke-width="2.5" stroke-linecap="round"/><text x="550" y="87.0" class="t-mono" text-anchor="middle">|2_a 0_b⟩</text><text x="550" y="117.0" class="t-small t-muted" text-anchor="middle">2ω + U</text><line x1="700" y1="48.0" x2="840" y2="48.0" stroke="#9a988f" stroke-width="2.5" stroke-linecap="round"/><text x="770" y="38.0" class="t-mono" text-anchor="middle">|1_a 1_b⟩</text><text x="770" y="68.0" class="t-small t-muted" text-anchor="middle">ω + Ω</text><path d="M182,188.0 C240,178.0 250,132.0 256,132.0" fill="none" stroke="#52514e" stroke-width="1.6" marker-end="url(#arr)"/><text x="244" y="118.0" text-anchor="end" class="t-small t-label">g · b† a</text><path d="M624,97.0 C680,97.0 690,48.0 696,48.0" fill="none" stroke="#9a988f" stroke-width="1.5" stroke-dasharray="5 4"/><text x="706" y="103.0" class="t-small t-label" text-anchor="start">√2 g, never reached</text><text x="706" y="118.0" class="t-small t-label" text-anchor="start">from the retained states</text><text x="115" y="350" class="t-small t-bold" text-anchor="middle">retained: range of W</text><text x="560" y="350" class="t-small t-muted" text-anchor="middle">complement Q: the rest of the target space (only the lowest states shown)</text></svg>
