<?xml version="1.0" encoding="UTF-8" standalone="no"?>
<!-- Created with Inkscape (http://www.inkscape.org/) -->

<svg
   width="45.907661mm"
   height="43.304928mm"
   viewBox="0 0 45.907662 43.304928"
   version="1.1"
   id="svg54678"
   inkscape:version="1.2.2 (1:1.2.2+202212051552+b0a8486541)"
   sodipodi:docname="logo.svg"
   xmlns:inkscape="http://www.inkscape.org/namespaces/inkscape"
   xmlns:sodipodi="http://sodipodi.sourceforge.net/DTD/sodipodi-0.dtd"
   xmlns="http://www.w3.org/2000/svg"
   xmlns:svg="http://www.w3.org/2000/svg">
  <sodipodi:namedview
     id="namedview54680"
     pagecolor="#ffffff"
     bordercolor="#000000"
     borderopacity="0.25"
     inkscape:showpageshadow="2"
     inkscape:pageopacity="0.0"
     inkscape:pagecheckerboard="0"
     inkscape:deskcolor="#d1d1d1"
     inkscape:document-units="mm"
     showgrid="false"
     inkscape:zoom="1.9855336"
     inkscape:cx="-33.240435"
     inkscape:cy="160.6621"
     inkscape:window-width="1920"
     inkscape:window-height="1043"
     inkscape:window-x="0"
     inkscape:window-y="0"
     inkscape:window-maximized="1"
     inkscape:current-layer="layer1" />
  <defs
     id="defs54675" />
  <g
     inkscape:label="Layer 1"
     inkscape:groupmode="layer"
     id="layer1"
     transform="translate(-5.3175446,-72.594236)">
    <rect
       style="fill:#8b4aa0;fill-opacity:0.5;stroke:#000000;stroke-width:0.209701;stroke-opacity:1"
       id="rect53108"
       width="7.8548717"
       height="12.230823"
       x="92.445023"
       y="-27.256603"
       transform="matrix(0,1,-0.69272344,0.72120333,0,0)" />
    <rect
       style="fill:#8b4aa0;fill-opacity:0.5;stroke:#000000;stroke-width:0.209701;stroke-opacity:1"
       id="rect53110"
       width="4.9334354"
       height="19.47356"
       x="-12.714574"
       y="-121.3206"
       transform="matrix(-0.69272344,0.72120333,0,-1,0,0)" />
    <rect
       style="fill:#8b4aa0;fill-opacity:1;stroke:#000000;stroke-width:0.209701;stroke-opacity:1"
       id="rect53112"
       width="7.8548717"
       height="4.9334354"
       x="91.780167"
       y="-12.714574"
       transform="matrix(0,1,-0.69272344,0.72120333,0,0)" />
    <rect
       style="fill:#8b4aa0;fill-opacity:1;stroke:#000000;stroke-width:0.210032;stroke-dasharray:none;stroke-opacity:1"
       id="rect53114"
       width="19.47356"
       height="12.230823"
       x="102.51192"
       y="-27.256603"
       transform="matrix(0,1,-0.69272344,0.72120333,0,0)" />
    <rect
       style="fill:#8b4aa0;fill-opacity:0.2;stroke:#000000;stroke-width:0.209746;stroke-opacity:1"
       id="rect53116"
       width="7.8589678"
       height="12.229663"
       x="109.27454"
       y="-50.578228"
       transform="matrix(0,1,-0.69226034,0.72164785,0,0)" />
    <rect
       style="fill:#8b4aa0;fill-opacity:0.2;stroke:#000000;stroke-width:0.209746;stroke-opacity:1"
       id="rect53118"
       width="4.9329677"
       height="19.483715"
       x="-36.036892"
       y="-138.16469"
       transform="matrix(-0.69226034,0.72164785,0,-1,0,0)" />
    <rect
       style="fill:#8b4aa0;fill-opacity:1;stroke:#000000;stroke-width:0.209746;stroke-opacity:1"
       id="rect53120"
       width="7.8589678"
       height="4.9329677"
       x="108.60884"
       y="-36.036892"
       transform="matrix(0,1,-0.69226034,0.72164785,0,0)" />
    <rect
       style="fill:#8b4aa0;fill-opacity:1;stroke:#000000;stroke-width:0.210077;stroke-dasharray:none;stroke-opacity:1"
       id="rect53122"
       width="19.483715"
       height="12.229663"
       x="119.34666"
       y="-50.578228"
       transform="matrix(0,1,-0.69226034,0.72164785,0,0)" />
    <rect
       style="fill:#8b4aa0;fill-opacity:1;stroke:#000000;stroke-width:0.209746;stroke-opacity:1"
       id="rect53124"
       width="7.8589687"
       height="4.9329658"
       x="125.43311"
       y="-59.350681"
       transform="matrix(0,1,-0.69226002,0.72164816,0,0)" />
    <rect
       style="fill:#8b4aa0;fill-opacity:1;stroke:#000000;stroke-width:0.210077;stroke-dasharray:none;stroke-opacity:1"
       id="rect53126"
       width="19.483717"
       height="12.229659"
       x="136.17102"
       y="-73.892021"
       transform="matrix(0,1,-0.69226002,0.72164816,0,0)" />
    <rect
       style="fill:#ffffff;fill-opacity:1;stroke:#000000;stroke-width:0.209746;stroke-opacity:1"
       id="rect53128"
       width="7.8589687"
       height="12.229659"
       x="126.09883"
       y="-73.892021"
       transform="matrix(0,1,-0.69226002,0.72164816,0,0)" />
    <rect
       style="fill:#ffffff;fill-opacity:1;stroke:#000000;stroke-width:0.209746;stroke-opacity:1"
       id="rect53130"
       width="4.9329658"
       height="19.483717"
       x="-59.350681"
       y="-154.989"
       transform="matrix(-0.69226002,0.72164816,0,-1,0,0)" />
  </g>
</svg>
