<?xml version="1.0" encoding="UTF-8" standalone="no"?>
<!-- Created with Inkscape (http://www.inkscape.org/) -->

<svg
   width="72.09594mm"
   height="95.386749mm"
   viewBox="0 0 72.09594 95.386749"
   version="1.1"
   id="svg5"
   inkscape:version="1.3-alpha (1:1.2.0-alpha1+devel+202305130032+2f44e41058)"
   sodipodi:docname="bilayer.svg"
   xmlns:inkscape="http://www.inkscape.org/namespaces/inkscape"
   xmlns:sodipodi="http://sodipodi.sourceforge.net/DTD/sodipodi-0.dtd"
   xmlns="http://www.w3.org/2000/svg"
   xmlns:svg="http://www.w3.org/2000/svg">
  <sodipodi:namedview
     id="namedview7"
     pagecolor="#ffffff"
     bordercolor="#000000"
     borderopacity="0.25"
     inkscape:showpageshadow="2"
     inkscape:pageopacity="0.0"
     inkscape:pagecheckerboard="0"
     inkscape:deskcolor="#d1d1d1"
     inkscape:document-units="mm"
     showgrid="false"
     inkscape:zoom="9.4465414"
     inkscape:cx="230.71936"
     inkscape:cy="193.61583"
     inkscape:window-width="1854"
     inkscape:window-height="1016"
     inkscape:window-x="0"
     inkscape:window-y="0"
     inkscape:window-maximized="1"
     inkscape:current-layer="layer1" />
  <defs
     id="defs2">
    <marker
       style="overflow:visible"
       id="marker83"
       refX="0"
       refY="0"
       orient="auto-start-reverse"
       inkscape:stockid="Dart arrow"
       markerWidth="8.75"
       markerHeight="5"
       viewBox="0 0 8.75 5"
       inkscape:isstock="true"
       inkscape:collect="always"
       preserveAspectRatio="xMidYMid">
      <path
         style="fill:context-stroke;fill-rule:evenodd;stroke:none"
         d="M 0,0 5,-5 -12.5,0 5,5 Z"
         transform="scale(-0.5)"
         id="path83" />
    </marker>
  </defs>
  <g
     inkscape:label="Layer 1"
     inkscape:groupmode="layer"
     id="layer1"
     transform="translate(-98.0581, -50.1473)">
    <g
       id="g10018"
       transform="translate(77.289552,10.581317)">
      <path
         style="fill:#ececec;stroke:#000000;stroke-width:0.3;stroke-linecap:round;stroke-dasharray:none"
         d="m 59.462363,48.644565 22.22252,38.539633 v 0 L 59.462363,125.72383 37.239843,87.184197 59.462363,48.644565"
         id="path10010"
         sodipodi:nodetypes="cccccc" />
    </g>
    <g
       id="g7511"
       transform="translate(4.9283785,18.356594)"
       style="fill:#ff7f2a;stroke:#ff7f2a">
      <circle
         style="fill:#ff7f2a;stroke:#ff7f2a;stroke-width:0.434285"
         id="circle7471"
         cx="-131.64189"
         cy="-101.51709"
         r="1.7114449"
         transform="scale(-1)" />
      <g
         id="g7499"
         transform="translate(0.2412629,-1.9273332)"
         style="fill:#ff7f2a;stroke:#ff7f2a">
        <path
           id="path7473"
           style="fill:#ff7f2a;stroke:#ff7f2a;stroke-width:1;stroke-dasharray:none"
           d="M 131.40063,103.44442 V 77.784068"
           sodipodi:nodetypes="cc" />
        <path
           id="path7475"
           style="fill:#ff7f2a;stroke:#ff7f2a;stroke-width:1;stroke-dasharray:none"
           d="m 109.17811,116.2746 22.22252,-12.83018"
           sodipodi:nodetypes="cc" />
        <path
           id="path7477"
           style="fill:#ff7f2a;stroke:#ff7f2a;stroke-width:1;stroke-dasharray:none"
           d="M 153.62315,116.2746 131.40063,103.44442"
           sodipodi:nodetypes="cc" />
        <path
           id="path7479"
           style="fill:#ff7f2a;stroke:#ff7f2a;stroke-width:1;stroke-dasharray:none"
           d="M 131.40063,77.734967 109.17811,64.904787"
           sodipodi:nodetypes="cc" />
        <path
           id="path7481"
           style="fill:#ff7f2a;stroke:#ff7f2a;stroke-width:1;stroke-dasharray:none"
           d="m 131.40063,77.734967 22.22252,-12.83018"
           sodipodi:nodetypes="cc" />
        <path
           id="path7483"
           style="fill:#ff7f2a;stroke:#ff7f2a;stroke-width:1;stroke-dasharray:none"
           d="M 109.17811,116.2746 98.06685,109.8595"
           sodipodi:nodetypes="cc" />
        <path
           id="path7485"
           style="fill:#ff7f2a;stroke:#ff7f2a;stroke-width:1;stroke-dasharray:none"
           d="M 109.17811,129.10477 V 116.2746"
           sodipodi:nodetypes="cc" />
        <path
           id="path7487"
           style="fill:#ff7f2a;stroke:#ff7f2a;stroke-width:1;stroke-dasharray:none"
           d="m 153.62315,116.2746 11.11126,-6.4151"
           sodipodi:nodetypes="cc" />
        <path
           id="path7489"
           style="fill:#ff7f2a;stroke:#ff7f2a;stroke-width:1;stroke-dasharray:none"
           d="M 153.62315,129.10477 V 116.2746"
           sodipodi:nodetypes="cc" />
        <path
           id="path7491"
           style="fill:#ff7f2a;stroke:#ff7f2a;stroke-width:1;stroke-dasharray:none"
           d="m 109.17811,64.904787 -11.111263,6.4151"
           sodipodi:nodetypes="cc" />
        <path
           id="path7493"
           style="fill:#ff7f2a;stroke:#ff7f2a;stroke-width:1;stroke-dasharray:none"
           d="m 109.17811,52.074617 v 12.83017"
           sodipodi:nodetypes="cc" />
        <path
           id="path7495"
           style="fill:#ff7f2a;stroke:#ff7f2a;stroke-width:1;stroke-dasharray:none"
           d="m 153.62315,64.904787 11.11126,6.4151"
           sodipodi:nodetypes="cc" />
        <path
           id="path7497"
           style="fill:#ff7f2a;stroke:#ff7f2a;stroke-width:1;stroke-dasharray:none"
           d="m 153.62315,52.074617 v 12.83017"
           sodipodi:nodetypes="cc" />
      </g>
      <circle
         style="fill:#ff7f2a;stroke:#ff7f2a;stroke-width:0.434285"
         id="circle7501"
         cx="-109.41937"
         cy="-114.34727"
         r="1.7114449"
         transform="scale(-1)" />
      <circle
         style="fill:#ff7f2a;stroke:#ff7f2a;stroke-width:0.434285"
         id="circle7503"
         cx="-153.86441"
         cy="-114.34727"
         r="1.7114449"
         transform="scale(-1)" />
      <circle
         style="fill:#ff7f2a;stroke:#ff7f2a;stroke-width:0.434285"
         id="circle7505"
         cx="-131.64189"
         cy="-75.807632"
         r="1.7114449"
         transform="scale(-1)" />
      <circle
         style="fill:#ff7f2a;stroke:#ff7f2a;stroke-width:0.434285"
         id="circle7507"
         cx="-153.86441"
         cy="-62.977455"
         r="1.7114449"
         transform="scale(-1)" />
      <circle
         style="fill:#ff7f2a;stroke:#ff7f2a;stroke-width:0.434285"
         id="circle7509"
         cx="-109.41937"
         cy="-62.977455"
         r="1.7114449"
         transform="scale(-1)" />
    </g>
    <path
       style="fill:none;stroke:#000000;stroke-width:1;stroke-dasharray:none;stroke-linecap:round"
       d="m 131.64189,101.51709 4.92838,-7.352864"
       id="path2933" />
    <g
       id="g7469">
      <circle
         style="fill:#00aad4;stroke:#00aad4;stroke-width:0.434285"
         id="circle2939"
         cx="-131.64189"
         cy="-101.51709"
         r="1.7114449"
         transform="scale(-1)" />
      <g
         id="g6683"
         transform="translate(0.2412629,-1.9273332)">
        <path
           id="path5879"
           style="fill:none;stroke:#00aad4;stroke-width:1;stroke-dasharray:none"
           d="M 131.40063,103.44442 V 77.784068"
           sodipodi:nodetypes="cc" />
        <path
           id="path5881"
           style="fill:none;stroke:#00aad4;stroke-width:1;stroke-dasharray:none"
           d="m 109.17811,116.2746 22.22252,-12.83018"
           sodipodi:nodetypes="cc" />
        <path
           id="path5883"
           style="fill:none;stroke:#00aad4;stroke-width:1;stroke-dasharray:none"
           d="M 153.62315,116.2746 131.40063,103.44442"
           sodipodi:nodetypes="cc" />
        <path
           id="path5885"
           style="fill:none;stroke:#00aad4;stroke-width:1;stroke-dasharray:none"
           d="M 131.40063,77.734967 109.17811,64.904787"
           sodipodi:nodetypes="cc" />
        <path
           id="path5887"
           style="fill:none;stroke:#00aad4;stroke-width:1;stroke-dasharray:none"
           d="m 131.40063,77.734967 22.22252,-12.83018"
           sodipodi:nodetypes="cc" />
        <path
           id="path5889"
           style="fill:none;stroke:#00aad4;stroke-width:1;stroke-dasharray:none"
           d="M 109.17811,116.2746 98.06685,109.8595"
           sodipodi:nodetypes="cc" />
        <path
           id="path5891"
           style="fill:none;stroke:#00aad4;stroke-width:1;stroke-dasharray:none"
           d="M 109.17811,129.10477 V 116.2746"
           sodipodi:nodetypes="cc" />
        <path
           id="path5893"
           style="fill:none;stroke:#00aad4;stroke-width:1;stroke-dasharray:none"
           d="m 153.62315,116.2746 11.11126,-6.4151"
           sodipodi:nodetypes="cc" />
        <path
           id="path5895"
           style="fill:none;stroke:#00aad4;stroke-width:1;stroke-dasharray:none"
           d="M 153.62315,129.10477 V 116.2746"
           sodipodi:nodetypes="cc" />
        <path
           id="path5903"
           style="fill:none;stroke:#00aad4;stroke-width:1;stroke-dasharray:none"
           d="m 109.17811,64.904787 -11.111263,6.4151"
           sodipodi:nodetypes="cc" />
        <path
           id="path5905"
           style="fill:none;stroke:#00aad4;stroke-width:1;stroke-dasharray:none"
           d="m 109.17811,52.074617 v 12.83017"
           sodipodi:nodetypes="cc" />
        <path
           id="path5913"
           style="fill:none;stroke:#00aad4;stroke-width:1;stroke-dasharray:none"
           d="m 153.62315,64.904787 11.11126,6.4151"
           sodipodi:nodetypes="cc" />
        <path
           id="path5915"
           style="fill:none;stroke:#00aad4;stroke-width:1;stroke-dasharray:none"
           d="m 153.62315,52.074617 v 12.83017"
           sodipodi:nodetypes="cc" />
      </g>
      <circle
         style="fill:#00aad4;stroke:#00aad4;stroke-width:0.434285"
         id="circle6713"
         cx="-109.41937"
         cy="-114.34727"
         r="1.7114449"
         transform="scale(-1)" />
      <circle
         style="fill:#00aad4;stroke:#00aad4;stroke-width:0.434285"
         id="circle6715"
         cx="-153.86441"
         cy="-114.34727"
         r="1.7114449"
         transform="scale(-1)" />
      <circle
         style="fill:#00aad4;stroke:#00aad4;stroke-width:0.434285"
         id="circle6717"
         cx="-131.64189"
         cy="-75.807632"
         r="1.7114449"
         transform="scale(-1)" />
      <circle
         style="fill:#00aad4;stroke:#00aad4;stroke-width:0.434285"
         id="circle6719"
         cx="-153.86441"
         cy="-62.977455"
         r="1.7114449"
         transform="scale(-1)" />
      <circle
         style="fill:#00aad4;stroke:#00aad4;stroke-width:0.434285"
         id="circle6721"
         cx="-109.41937"
         cy="-62.977455"
         r="1.7114449"
         transform="scale(-1)" />
    </g>
    <g
       id="g1"
       transform="matrix(1.2,0,0,1.2,78.419743,-10.960086)">
      <g
         style="fill:#000000;fill-opacity:1"
         id="g13"
         transform="matrix(0.352778,0,0,0.352778,49.576263,103.14664)">
        <g
           id="use12"
           transform="translate(1.993,10.294)">
          <path
             style="stroke:none"
             d="m 5.140625,-8.1875 c 0,-0.109375 -0.078125,-0.109375 -0.125,-0.109375 -0.109375,0 -0.109375,0.03125 -0.15625,0.234375 L 4.203125,-5.5 c -0.03125,0.15625 -0.046875,0.171875 -0.0625,0.1875 0,0.015625 -0.09375,0.03125 -0.109375,0.03125 C 2.0625,-5.109375 0.5625,-3.5 0.5625,-2.015625 c 0,1.296875 0.984375,2.09375 2.234375,2.15625 -0.09375,0.375 -0.171875,0.75 -0.28125,1.125 -0.15625,0.640625 -0.25,1.03125 -0.25,1.078125 0,0.015625 0,0.09375 0.109375,0.09375 0.046875,0 0.09375,0 0.109375,-0.046875 0.03125,-0.03125 0.09375,-0.3125 0.140625,-0.46875 l 0.453125,-1.78125 c 2.03125,-0.109375 3.59375,-1.78125 3.59375,-3.28125 0,-1.203125 -0.90625,-2.078125 -2.234375,-2.15625 z m -0.78125,3.125 C 5.15625,-5.015625 5.9375,-4.5625 5.9375,-3.390625 5.9375,-2.046875 5,-0.25 3.125,-0.109375 Z m -1.5,4.96875 C 2.265625,-0.125 1.296875,-0.4375 1.296875,-1.75 c 0,-1.515625 1.078125,-3.1875 2.796875,-3.296875 z m 0,0"
             id="path35" />
        </g>
      </g>
      <g
         style="fill:#000000;fill-opacity:1"
         id="g14"
         transform="matrix(0.352778,0,0,0.352778,49.576263,103.14664)">
        <g
           id="use13"
           transform="translate(8.9209995,12.088)">
          <path
             style="stroke:none"
             d="M 1.46875,-0.953125 C 1.109375,-0.359375 0.78125,-0.28125 0.5,-0.265625 0.421875,-0.25 0.3125,-0.25 0.3125,-0.109375 0.3125,-0.09375 0.328125,0 0.4375,0 0.5,0 0.546875,-0.03125 1.109375,-0.03125 1.65625,-0.03125 1.828125,0 1.875,0 c 0.03125,0 0.15625,0 0.15625,-0.15625 0,-0.09375 -0.109375,-0.109375 -0.140625,-0.109375 -0.171875,0 -0.34375,-0.0625 -0.34375,-0.25 0,-0.109375 0.078125,-0.21875 0.21875,-0.453125 L 2.3125,-1.84375 H 4.5 L 4.65625,-0.5 c 0,0.125 -0.140625,0.234375 -0.515625,0.234375 -0.109375,0 -0.21875,0 -0.21875,0.15625 0,0 0,0.109375 0.140625,0.109375 0.078125,0 0.375,-0.015625 0.453125,-0.03125 h 0.5 C 5.734375,-0.03125 5.859375,0 5.921875,0 5.953125,0 6.09375,0 6.09375,-0.15625 c 0,-0.109375 -0.109375,-0.109375 -0.234375,-0.109375 -0.4375,0 -0.453125,-0.0625 -0.46875,-0.265625 L 4.75,-5.453125 C 4.734375,-5.640625 4.71875,-5.6875 4.59375,-5.6875 c -0.140625,0 -0.1875,0.078125 -0.25,0.15625 z M 2.484375,-2.109375 4.125,-4.71875 4.46875,-2.109375 Z m 0,0"
             id="path36" />
        </g>
        <g
           id="use14"
           transform="translate(15.263606,12.088)">
          <path
             style="stroke:none"
             d="m 1.484375,-0.125 c 0,0.515625 -0.109375,0.984375 -0.59375,1.46875 C 0.859375,1.375 0.84375,1.390625 0.84375,1.421875 c 0,0.0625 0.0625,0.109375 0.109375,0.109375 0.09375,0 0.765625,-0.625 0.765625,-1.5625 0,-0.5 -0.203125,-0.859375 -0.546875,-0.859375 -0.28125,0 -0.4375,0.234375 -0.4375,0.4375 C 0.734375,-0.21875 0.890625,0 1.171875,0 1.375,0 1.484375,-0.109375 1.484375,-0.125 Z m 0,0"
             id="path37" />
        </g>
      </g>
      <g
         style="fill:#000000;fill-opacity:1"
         id="g15"
         transform="matrix(0.352778,0,0,0.352778,49.576263,103.14664)">
        <g
           id="use15"
           transform="translate(17.615999,12.088)">
          <path
             style="stroke:none"
             d="m 2.5,-5.078125 c 0,-0.21875 -0.015625,-0.21875 -0.234375,-0.21875 -0.328125,0.3125 -0.75,0.5 -1.5,0.5 v 0.265625 c 0.21875,0 0.640625,0 1.109375,-0.203125 v 4.078125 c 0,0.296875 -0.03125,0.390625 -0.78125,0.390625 H 0.8125 V 0 c 0.328125,-0.03125 1.015625,-0.03125 1.375,-0.03125 0.359375,0 1.046875,0 1.375,0.03125 V -0.265625 H 3.28125 c -0.75,0 -0.78125,-0.09375 -0.78125,-0.390625 z m 0,0"
             id="path38" />
        </g>
      </g>
    </g>
    <g
       id="g2"
       transform="matrix(1.2,0,0,1.2,70.858975,-30.355114)">
      <g
         style="fill:#000000;fill-opacity:1"
         id="g16"
         transform="matrix(0.352778,0,0,0.352778,49.576263,103.14664)">
        <g
           id="use16"
           transform="translate(22.348,10.294)">
          <path
             style="stroke:none"
             d="m 5.140625,-8.1875 c 0,-0.109375 -0.078125,-0.109375 -0.125,-0.109375 -0.109375,0 -0.109375,0.03125 -0.15625,0.234375 L 4.203125,-5.5 c -0.03125,0.15625 -0.046875,0.171875 -0.0625,0.1875 0,0.015625 -0.09375,0.03125 -0.109375,0.03125 C 2.0625,-5.109375 0.5625,-3.5 0.5625,-2.015625 c 0,1.296875 0.984375,2.09375 2.234375,2.15625 -0.09375,0.375 -0.171875,0.75 -0.28125,1.125 -0.15625,0.640625 -0.25,1.03125 -0.25,1.078125 0,0.015625 0,0.09375 0.109375,0.09375 0.046875,0 0.09375,0 0.109375,-0.046875 0.03125,-0.03125 0.09375,-0.3125 0.140625,-0.46875 l 0.453125,-1.78125 c 2.03125,-0.109375 3.59375,-1.78125 3.59375,-3.28125 0,-1.203125 -0.90625,-2.078125 -2.234375,-2.15625 z m -0.78125,3.125 C 5.15625,-5.015625 5.9375,-4.5625 5.9375,-3.390625 5.9375,-2.046875 5,-0.25 3.125,-0.109375 Z m -1.5,4.96875 C 2.265625,-0.125 1.296875,-0.4375 1.296875,-1.75 c 0,-1.515625 1.078125,-3.1875 2.796875,-3.296875 z m 0,0"
             id="path39" />
        </g>
      </g>
      <g
         style="fill:#000000;fill-opacity:1"
         id="g17"
         transform="matrix(0.352778,0,0,0.352778,49.576263,103.14664)">
        <g
           id="use17"
           transform="translate(29.275999,12.088)">
          <path
             style="stroke:none"
             d="m 1.34375,-0.625 c -0.0625,0.296875 -0.078125,0.359375 -0.671875,0.359375 -0.15625,0 -0.25,0 -0.25,0.15625 C 0.421875,0 0.53125,0 0.65625,0 H 3.625 C 4.9375,0 5.90625,-0.9375 5.90625,-1.703125 5.90625,-2.28125 5.40625,-2.75 4.609375,-2.84375 5.53125,-3.015625 6.328125,-3.625 6.328125,-4.328125 6.328125,-4.921875 5.75,-5.4375 4.75,-5.4375 H 1.96875 c -0.140625,0 -0.25,0 -0.25,0.140625 0,0.125 0.09375,0.125 0.234375,0.125 0.265625,0 0.5,0 0.5,0.125 0,0.03125 -0.015625,0.03125 -0.03125,0.140625 z m 1.25,-2.3125 0.484375,-1.953125 c 0.0625,-0.265625 0.078125,-0.28125 0.40625,-0.28125 H 4.625 c 0.78125,0 0.96875,0.5 0.96875,0.828125 0,0.671875 -0.734375,1.40625 -1.75,1.40625 z M 2.046875,-0.265625 C 1.96875,-0.28125 1.9375,-0.28125 1.9375,-0.328125 c 0,-0.0625 0.015625,-0.140625 0.03125,-0.1875 l 0.5625,-2.203125 h 1.625 c 0.734375,0 0.984375,0.5 0.984375,0.953125 0,0.78125 -0.765625,1.5 -1.71875,1.5 z m 0,0"
             id="path40" />
        </g>
      </g>
      <g
         style="fill:#000000;fill-opacity:1"
         id="g18"
         transform="matrix(0.352778,0,0,0.352778,49.576263,103.14664)">
        <g
           id="use18"
           transform="translate(36.053772,12.088)">
          <path
             style="stroke:none"
             d="m 1.484375,-0.125 c 0,0.515625 -0.109375,0.984375 -0.59375,1.46875 C 0.859375,1.375 0.84375,1.390625 0.84375,1.421875 c 0,0.0625 0.0625,0.109375 0.109375,0.109375 0.09375,0 0.765625,-0.625 0.765625,-1.5625 0,-0.5 -0.203125,-0.859375 -0.546875,-0.859375 -0.28125,0 -0.4375,0.234375 -0.4375,0.4375 C 0.734375,-0.21875 0.890625,0 1.171875,0 1.375,0 1.484375,-0.109375 1.484375,-0.125 Z m 0,0"
             id="path41" />
        </g>
      </g>
      <g
         style="fill:#000000;fill-opacity:1"
         id="g19"
         transform="matrix(0.352778,0,0,0.352778,49.576263,103.14664)">
        <g
           id="use19"
           transform="translate(38.409,12.088)">
          <path
             style="stroke:none"
             d="m 2.5,-5.078125 c 0,-0.21875 -0.015625,-0.21875 -0.234375,-0.21875 -0.328125,0.3125 -0.75,0.5 -1.5,0.5 v 0.265625 c 0.21875,0 0.640625,0 1.109375,-0.203125 v 4.078125 c 0,0.296875 -0.03125,0.390625 -0.78125,0.390625 H 0.8125 V 0 c 0.328125,-0.03125 1.015625,-0.03125 1.375,-0.03125 0.359375,0 1.046875,0 1.375,0.03125 V -0.265625 H 3.28125 c -0.75,0 -0.78125,-0.09375 -0.78125,-0.390625 z m 0,0"
             id="path42" />
        </g>
      </g>
    </g>
    <g
       id="g3"
       transform="matrix(1.2,0,0,1.2,42.760102,-28.442203)">
      <g
         style="fill:#000000;fill-opacity:1"
         id="g20"
         transform="matrix(0.352778,0,0,0.352778,49.576263,103.14664)">
        <g
           id="use20"
           transform="translate(43.140999,10.294)">
          <path
             style="stroke:none"
             d="m 5.140625,-8.1875 c 0,-0.109375 -0.078125,-0.109375 -0.125,-0.109375 -0.109375,0 -0.109375,0.03125 -0.15625,0.234375 L 4.203125,-5.5 c -0.03125,0.15625 -0.046875,0.171875 -0.0625,0.1875 0,0.015625 -0.09375,0.03125 -0.109375,0.03125 C 2.0625,-5.109375 0.5625,-3.5 0.5625,-2.015625 c 0,1.296875 0.984375,2.09375 2.234375,2.15625 -0.09375,0.375 -0.171875,0.75 -0.28125,1.125 -0.15625,0.640625 -0.25,1.03125 -0.25,1.078125 0,0.015625 0,0.09375 0.109375,0.09375 0.046875,0 0.09375,0 0.109375,-0.046875 0.03125,-0.03125 0.09375,-0.3125 0.140625,-0.46875 l 0.453125,-1.78125 c 2.03125,-0.109375 3.59375,-1.78125 3.59375,-3.28125 0,-1.203125 -0.90625,-2.078125 -2.234375,-2.15625 z m -0.78125,3.125 C 5.15625,-5.015625 5.9375,-4.5625 5.9375,-3.390625 5.9375,-2.046875 5,-0.25 3.125,-0.109375 Z m -1.5,4.96875 C 2.265625,-0.125 1.296875,-0.4375 1.296875,-1.75 c 0,-1.515625 1.078125,-3.1875 2.796875,-3.296875 z m 0,0"
             id="path43" />
        </g>
      </g>
      <g
         style="fill:#000000;fill-opacity:1"
         id="g22"
         transform="matrix(0.352778,0,0,0.352778,49.576263,103.14664)">
        <g
           id="use21"
           transform="translate(50.069,12.088)">
          <path
             style="stroke:none"
             d="M 1.46875,-0.953125 C 1.109375,-0.359375 0.78125,-0.28125 0.5,-0.265625 0.421875,-0.25 0.3125,-0.25 0.3125,-0.109375 0.3125,-0.09375 0.328125,0 0.4375,0 0.5,0 0.546875,-0.03125 1.109375,-0.03125 1.65625,-0.03125 1.828125,0 1.875,0 c 0.03125,0 0.15625,0 0.15625,-0.15625 0,-0.09375 -0.109375,-0.109375 -0.140625,-0.109375 -0.171875,0 -0.34375,-0.0625 -0.34375,-0.25 0,-0.109375 0.078125,-0.21875 0.21875,-0.453125 L 2.3125,-1.84375 H 4.5 L 4.65625,-0.5 c 0,0.125 -0.140625,0.234375 -0.515625,0.234375 -0.109375,0 -0.21875,0 -0.21875,0.15625 0,0 0,0.109375 0.140625,0.109375 0.078125,0 0.375,-0.015625 0.453125,-0.03125 h 0.5 C 5.734375,-0.03125 5.859375,0 5.921875,0 5.953125,0 6.09375,0 6.09375,-0.15625 c 0,-0.109375 -0.109375,-0.109375 -0.234375,-0.109375 -0.4375,0 -0.453125,-0.0625 -0.46875,-0.265625 L 4.75,-5.453125 C 4.734375,-5.640625 4.71875,-5.6875 4.59375,-5.6875 c -0.140625,0 -0.1875,0.078125 -0.25,0.15625 z M 2.484375,-2.109375 4.125,-4.71875 4.46875,-2.109375 Z m 0,0"
             id="path44" />
        </g>
        <g
           id="use22"
           transform="translate(56.411606,12.088)">
          <path
             style="stroke:none"
             d="m 1.484375,-0.125 c 0,0.515625 -0.109375,0.984375 -0.59375,1.46875 C 0.859375,1.375 0.84375,1.390625 0.84375,1.421875 c 0,0.0625 0.0625,0.109375 0.109375,0.109375 0.09375,0 0.765625,-0.625 0.765625,-1.5625 0,-0.5 -0.203125,-0.859375 -0.546875,-0.859375 -0.28125,0 -0.4375,0.234375 -0.4375,0.4375 C 0.734375,-0.21875 0.890625,0 1.171875,0 1.375,0 1.484375,-0.109375 1.484375,-0.125 Z m 0,0"
             id="path45" />
        </g>
      </g>
      <g
         style="fill:#000000;fill-opacity:1"
         id="g23"
         transform="matrix(0.352778,0,0,0.352778,49.576263,103.14664)">
        <g
           id="use23"
           transform="translate(58.764999,12.088)">
          <path
             style="stroke:none"
             d="m 2.25,-1.625 c 0.125,-0.125 0.453125,-0.390625 0.59375,-0.5 0.484375,-0.453125 0.953125,-0.890625 0.953125,-1.609375 0,-0.953125 -0.796875,-1.5625 -1.78125,-1.5625 -0.96875,0 -1.59375,0.71875 -1.59375,1.4375 0,0.390625 0.3125,0.4375 0.421875,0.4375 0.171875,0 0.421875,-0.109375 0.421875,-0.421875 0,-0.40625 -0.40625,-0.40625 -0.5,-0.40625 C 1,-4.84375 1.53125,-5.03125 1.921875,-5.03125 c 0.734375,0 1.125,0.625 1.125,1.296875 0,0.828125 -0.578125,1.4375 -1.53125,2.390625 l -1,1.046875 C 0.421875,-0.21875 0.421875,-0.203125 0.421875,0 H 3.5625 l 0.234375,-1.421875 h -0.25 C 3.53125,-1.265625 3.46875,-0.875 3.375,-0.71875 c -0.046875,0.0625 -0.65625,0.0625 -0.78125,0.0625 H 1.171875 Z m 0,0"
             id="path46" />
        </g>
      </g>
    </g>
    <g
       id="g4"
       transform="matrix(1.2,0,0,1.2,47.596259,-48.541709)">
      <g
         style="fill:#000000;fill-opacity:1"
         id="g24"
         transform="matrix(0.352778,0,0,0.352778,49.576263,103.14664)">
        <g
           id="use24"
           transform="translate(63.497002,10.294)">
          <path
             style="stroke:none"
             d="m 5.140625,-8.1875 c 0,-0.109375 -0.078125,-0.109375 -0.125,-0.109375 -0.109375,0 -0.109375,0.03125 -0.15625,0.234375 L 4.203125,-5.5 c -0.03125,0.15625 -0.046875,0.171875 -0.0625,0.1875 0,0.015625 -0.09375,0.03125 -0.109375,0.03125 C 2.0625,-5.109375 0.5625,-3.5 0.5625,-2.015625 c 0,1.296875 0.984375,2.09375 2.234375,2.15625 -0.09375,0.375 -0.171875,0.75 -0.28125,1.125 -0.15625,0.640625 -0.25,1.03125 -0.25,1.078125 0,0.015625 0,0.09375 0.109375,0.09375 0.046875,0 0.09375,0 0.109375,-0.046875 0.03125,-0.03125 0.09375,-0.3125 0.140625,-0.46875 l 0.453125,-1.78125 c 2.03125,-0.109375 3.59375,-1.78125 3.59375,-3.28125 0,-1.203125 -0.90625,-2.078125 -2.234375,-2.15625 z m -0.78125,3.125 C 5.15625,-5.015625 5.9375,-4.5625 5.9375,-3.390625 5.9375,-2.046875 5,-0.25 3.125,-0.109375 Z m -1.5,4.96875 C 2.265625,-0.125 1.296875,-0.4375 1.296875,-1.75 c 0,-1.515625 1.078125,-3.1875 2.796875,-3.296875 z m 0,0"
             id="path47" />
        </g>
      </g>
      <g
         style="fill:#000000;fill-opacity:1"
         id="g25"
         transform="matrix(0.352778,0,0,0.352778,49.576263,103.14664)">
        <g
           id="use25"
           transform="translate(70.425003,12.088)">
          <path
             style="stroke:none"
             d="m 1.34375,-0.625 c -0.0625,0.296875 -0.078125,0.359375 -0.671875,0.359375 -0.15625,0 -0.25,0 -0.25,0.15625 C 0.421875,0 0.53125,0 0.65625,0 H 3.625 C 4.9375,0 5.90625,-0.9375 5.90625,-1.703125 5.90625,-2.28125 5.40625,-2.75 4.609375,-2.84375 5.53125,-3.015625 6.328125,-3.625 6.328125,-4.328125 6.328125,-4.921875 5.75,-5.4375 4.75,-5.4375 H 1.96875 c -0.140625,0 -0.25,0 -0.25,0.140625 0,0.125 0.09375,0.125 0.234375,0.125 0.265625,0 0.5,0 0.5,0.125 0,0.03125 -0.015625,0.03125 -0.03125,0.140625 z m 1.25,-2.3125 0.484375,-1.953125 c 0.0625,-0.265625 0.078125,-0.28125 0.40625,-0.28125 H 4.625 c 0.78125,0 0.96875,0.5 0.96875,0.828125 0,0.671875 -0.734375,1.40625 -1.75,1.40625 z M 2.046875,-0.265625 C 1.96875,-0.28125 1.9375,-0.28125 1.9375,-0.328125 c 0,-0.0625 0.015625,-0.140625 0.03125,-0.1875 l 0.5625,-2.203125 h 1.625 c 0.734375,0 0.984375,0.5 0.984375,0.953125 0,0.78125 -0.765625,1.5 -1.71875,1.5 z m 0,0"
             id="path48" />
        </g>
      </g>
      <g
         style="fill:#000000;fill-opacity:1"
         id="g26"
         transform="matrix(0.352778,0,0,0.352778,49.576263,103.14664)">
        <g
           id="use26"
           transform="translate(77.202774,12.088)">
          <path
             style="stroke:none"
             d="m 1.484375,-0.125 c 0,0.515625 -0.109375,0.984375 -0.59375,1.46875 C 0.859375,1.375 0.84375,1.390625 0.84375,1.421875 c 0,0.0625 0.0625,0.109375 0.109375,0.109375 0.09375,0 0.765625,-0.625 0.765625,-1.5625 0,-0.5 -0.203125,-0.859375 -0.546875,-0.859375 -0.28125,0 -0.4375,0.234375 -0.4375,0.4375 C 0.734375,-0.21875 0.890625,0 1.171875,0 1.375,0 1.484375,-0.109375 1.484375,-0.125 Z m 0,0"
             id="path49" />
        </g>
      </g>
      <g
         style="fill:#000000;fill-opacity:1"
         id="g27"
         transform="matrix(0.352778,0,0,0.352778,49.576263,103.14664)">
        <g
           id="use27"
           transform="translate(79.556999,12.088)">
          <path
             style="stroke:none"
             d="m 2.25,-1.625 c 0.125,-0.125 0.453125,-0.390625 0.59375,-0.5 0.484375,-0.453125 0.953125,-0.890625 0.953125,-1.609375 0,-0.953125 -0.796875,-1.5625 -1.78125,-1.5625 -0.96875,0 -1.59375,0.71875 -1.59375,1.4375 0,0.390625 0.3125,0.4375 0.421875,0.4375 0.171875,0 0.421875,-0.109375 0.421875,-0.421875 0,-0.40625 -0.40625,-0.40625 -0.5,-0.40625 C 1,-4.84375 1.53125,-5.03125 1.921875,-5.03125 c 0.734375,0 1.125,0.625 1.125,1.296875 0,0.828125 -0.578125,1.4375 -1.53125,2.390625 l -1,1.046875 C 0.421875,-0.21875 0.421875,-0.203125 0.421875,0 H 3.5625 l 0.234375,-1.421875 h -0.25 C 3.53125,-1.265625 3.46875,-0.875 3.375,-0.71875 c -0.046875,0.0625 -0.65625,0.0625 -0.78125,0.0625 H 1.171875 Z m 0,0"
             id="path50" />
        </g>
      </g>
    </g>
    <g
       id="g5"
       transform="matrix(1.2,0,0,1.2,16.53474,-19.028864)">
      <g
         style="fill:#000000;fill-opacity:1"
         id="g28"
         transform="matrix(0.352778,0,0,0.352778,49.576263,103.14664)">
        <g
           id="use28"
           transform="translate(84.290001,10.294)">
          <path
             style="stroke:none"
             d="M 2.40625,-4.8125 H 3.5 c 0.234375,0 0.34375,0 0.34375,-0.203125 0,-0.140625 -0.0625,-0.140625 -0.3125,-0.140625 H 2.484375 l 0.4375,-1.734375 C 2.96875,-7.0625 2.96875,-7.09375 2.96875,-7.171875 c 0,-0.1875 -0.140625,-0.296875 -0.296875,-0.296875 -0.109375,0 -0.375,0.03125 -0.46875,0.421875 l -0.46875,1.890625 h -1.125 c -0.234375,0 -0.34375,0 -0.34375,0.234375 0,0.109375 0.078125,0.109375 0.3125,0.109375 h 1.0625 L 0.84375,-1.65625 c -0.09375,0.421875 -0.125,0.546875 -0.125,0.703125 0,0.5625 0.390625,1.078125 1.0625,1.078125 1.203125,0 1.859375,-1.75 1.859375,-1.828125 0,-0.078125 -0.0625,-0.109375 -0.125,-0.109375 -0.03125,0 -0.078125,0 -0.09375,0.046875 C 3.40625,-1.75 3.390625,-1.75 3.3125,-1.546875 c -0.25,0.59375 -0.796875,1.421875 -1.5,1.421875 -0.359375,0 -0.375,-0.296875 -0.375,-0.5625 0,0 0,-0.234375 0.03125,-0.375 z m 0,0"
             id="path51" />
        </g>
      </g>
      <g
         style="fill:#000000;fill-opacity:1"
         id="g29"
         transform="matrix(0.352778,0,0,0.352778,49.576263,103.14664)">
        <g
           id="use29"
           transform="translate(88.516998,12.088)">
          <path
             style="stroke:none"
             d="m 2.5,-5.078125 c 0,-0.21875 -0.015625,-0.21875 -0.234375,-0.21875 -0.328125,0.3125 -0.75,0.5 -1.5,0.5 v 0.265625 c 0.21875,0 0.640625,0 1.109375,-0.203125 v 4.078125 c 0,0.296875 -0.03125,0.390625 -0.78125,0.390625 H 0.8125 V 0 c 0.328125,-0.03125 1.015625,-0.03125 1.375,-0.03125 0.359375,0 1.046875,0 1.375,0.03125 V -0.265625 H 3.28125 c -0.75,0 -0.78125,-0.09375 -0.78125,-0.390625 z m 0,0"
             id="path52" />
        </g>
      </g>
    </g>
    <g
       id="g6"
       transform="matrix(1.2,0,0,1.2,32.078625,-32.574213)">
      <g
         style="fill:#000000;fill-opacity:1"
         id="g30"
         transform="matrix(0.352778,0,0,0.352778,49.576263,103.14664)">
        <g
           id="use30"
           transform="translate(93.249001,10.294)">
          <path
             style="stroke:none"
             d="M 2.40625,-4.8125 H 3.5 c 0.234375,0 0.34375,0 0.34375,-0.203125 0,-0.140625 -0.0625,-0.140625 -0.3125,-0.140625 H 2.484375 l 0.4375,-1.734375 C 2.96875,-7.0625 2.96875,-7.09375 2.96875,-7.171875 c 0,-0.1875 -0.140625,-0.296875 -0.296875,-0.296875 -0.109375,0 -0.375,0.03125 -0.46875,0.421875 l -0.46875,1.890625 h -1.125 c -0.234375,0 -0.34375,0 -0.34375,0.234375 0,0.109375 0.078125,0.109375 0.3125,0.109375 h 1.0625 L 0.84375,-1.65625 c -0.09375,0.421875 -0.125,0.546875 -0.125,0.703125 0,0.5625 0.390625,1.078125 1.0625,1.078125 1.203125,0 1.859375,-1.75 1.859375,-1.828125 0,-0.078125 -0.0625,-0.109375 -0.125,-0.109375 -0.03125,0 -0.078125,0 -0.09375,0.046875 C 3.40625,-1.75 3.390625,-1.75 3.3125,-1.546875 c -0.25,0.59375 -0.796875,1.421875 -1.5,1.421875 -0.359375,0 -0.375,-0.296875 -0.375,-0.5625 0,0 0,-0.234375 0.03125,-0.375 z m 0,0"
             id="path53" />
        </g>
      </g>
      <g
         style="fill:#000000;fill-opacity:1"
         id="g31"
         transform="matrix(0.352778,0,0,0.352778,49.576263,103.14664)">
        <g
           id="use31"
           transform="translate(97.475998,12.088)">
          <path
             style="stroke:none"
             d="m 2.25,-1.625 c 0.125,-0.125 0.453125,-0.390625 0.59375,-0.5 0.484375,-0.453125 0.953125,-0.890625 0.953125,-1.609375 0,-0.953125 -0.796875,-1.5625 -1.78125,-1.5625 -0.96875,0 -1.59375,0.71875 -1.59375,1.4375 0,0.390625 0.3125,0.4375 0.421875,0.4375 0.171875,0 0.421875,-0.109375 0.421875,-0.421875 0,-0.40625 -0.40625,-0.40625 -0.5,-0.40625 C 1,-4.84375 1.53125,-5.03125 1.921875,-5.03125 c 0.734375,0 1.125,0.625 1.125,1.296875 0,0.828125 -0.578125,1.4375 -1.53125,2.390625 l -1,1.046875 C 0.421875,-0.21875 0.421875,-0.203125 0.421875,0 H 3.5625 l 0.234375,-1.421875 h -0.25 C 3.53125,-1.265625 3.46875,-0.875 3.375,-0.71875 c -0.046875,0.0625 -0.65625,0.0625 -0.78125,0.0625 H 1.171875 Z m 0,0"
             id="path54" />
        </g>
      </g>
    </g>
    <g
       id="g7"
       transform="matrix(1.2,0,0,1.2,55.958753,-25.861843)">
      <g
         style="fill:#000000;fill-opacity:1"
         id="g32"
         transform="matrix(0.352778,0,0,0.352778,49.576263,103.14664)">
        <g
           id="use32"
           transform="translate(102.209,10.294)">
          <path
             style="stroke:none"
             d="m 5.5,-3.578125 c 0,-1.09375 -0.875,-1.84375 -2.5625,-1.84375 -0.671875,0 -2.078125,0.0625 -2.078125,1.078125 0,0.5 0.390625,0.703125 0.703125,0.703125 0.359375,0 0.703125,-0.25 0.703125,-0.703125 0,-0.21875 -0.078125,-0.4375 -0.28125,-0.5625 0.390625,-0.109375 0.6875,-0.109375 0.90625,-0.109375 0.8125,0 1.3125,0.453125 1.3125,1.4375 v 0.46875 c -1.890625,0 -3.796875,0.53125 -3.796875,1.859375 0,1.078125 1.390625,1.328125 2.21875,1.328125 0.90625,0 1.5,-0.515625 1.734375,-1.03125 0,0.4375 0,0.953125 1.203125,0.953125 h 0.625 c 0.25,0 0.34375,0 0.34375,-0.265625 0,-0.25 -0.109375,-0.25 -0.28125,-0.25 C 5.5,-0.53125 5.5,-0.71875 5.5,-0.984375 Z M 4.203125,-1.65625 c 0,1.125 -1.015625,1.328125 -1.390625,1.328125 -0.59375,0 -1.078125,-0.390625 -1.078125,-0.9375 0,-1.09375 1.296875,-1.453125 2.46875,-1.515625 z m 0,0"
             id="path55" />
        </g>
      </g>
      <g
         style="fill:#000000;fill-opacity:1"
         id="g33"
         transform="matrix(0.352778,0,0,0.352778,49.576263,103.14664)">
        <g
           id="use33"
           transform="translate(108.747,12.088)">
          <path
             style="stroke:none"
             d="m 2.5,-5.078125 c 0,-0.21875 -0.015625,-0.21875 -0.234375,-0.21875 -0.328125,0.3125 -0.75,0.5 -1.5,0.5 v 0.265625 c 0.21875,0 0.640625,0 1.109375,-0.203125 v 4.078125 c 0,0.296875 -0.03125,0.390625 -0.78125,0.390625 H 0.8125 V 0 c 0.328125,-0.03125 1.015625,-0.03125 1.375,-0.03125 0.359375,0 1.046875,0 1.375,0.03125 V -0.265625 H 3.28125 c -0.75,0 -0.78125,-0.09375 -0.78125,-0.390625 z m 0,0"
             id="path56" />
        </g>
      </g>
    </g>
    <g
       id="g8"
       transform="matrix(1.2,0,0,1.2,2.6573558,-26.071611)">
      <g
         style="fill:#000000;fill-opacity:1"
         id="g34"
         transform="matrix(0.352778,0,0,0.352778,49.576263,103.14664)">
        <g
           id="use34"
           transform="translate(113.479,10.294)">
          <path
             style="stroke:none"
             d="m 5.5,-3.578125 c 0,-1.09375 -0.875,-1.84375 -2.5625,-1.84375 -0.671875,0 -2.078125,0.0625 -2.078125,1.078125 0,0.5 0.390625,0.703125 0.703125,0.703125 0.359375,0 0.703125,-0.25 0.703125,-0.703125 0,-0.21875 -0.078125,-0.4375 -0.28125,-0.5625 0.390625,-0.109375 0.6875,-0.109375 0.90625,-0.109375 0.8125,0 1.3125,0.453125 1.3125,1.4375 v 0.46875 c -1.890625,0 -3.796875,0.53125 -3.796875,1.859375 0,1.078125 1.390625,1.328125 2.21875,1.328125 0.90625,0 1.5,-0.515625 1.734375,-1.03125 0,0.4375 0,0.953125 1.203125,0.953125 h 0.625 c 0.25,0 0.34375,0 0.34375,-0.265625 0,-0.25 -0.109375,-0.25 -0.28125,-0.25 C 5.5,-0.53125 5.5,-0.71875 5.5,-0.984375 Z M 4.203125,-1.65625 c 0,1.125 -1.015625,1.328125 -1.390625,1.328125 -0.59375,0 -1.078125,-0.390625 -1.078125,-0.9375 0,-1.09375 1.296875,-1.453125 2.46875,-1.515625 z m 0,0"
             id="path57" />
        </g>
      </g>
      <g
         style="fill:#000000;fill-opacity:1"
         id="g35"
         transform="matrix(0.352778,0,0,0.352778,49.576263,103.14664)">
        <g
           id="use35"
           transform="translate(120.017,12.088)">
          <path
             style="stroke:none"
             d="m 2.25,-1.625 c 0.125,-0.125 0.453125,-0.390625 0.59375,-0.5 0.484375,-0.453125 0.953125,-0.890625 0.953125,-1.609375 0,-0.953125 -0.796875,-1.5625 -1.78125,-1.5625 -0.96875,0 -1.59375,0.71875 -1.59375,1.4375 0,0.390625 0.3125,0.4375 0.421875,0.4375 0.171875,0 0.421875,-0.109375 0.421875,-0.421875 0,-0.40625 -0.40625,-0.40625 -0.5,-0.40625 C 1,-4.84375 1.53125,-5.03125 1.921875,-5.03125 c 0.734375,0 1.125,0.625 1.125,1.296875 0,0.828125 -0.578125,1.4375 -1.53125,2.390625 l -1,1.046875 C 0.421875,-0.21875 0.421875,-0.203125 0.421875,0 H 3.5625 l 0.234375,-1.421875 h -0.25 C 3.53125,-1.265625 3.46875,-0.875 3.375,-0.71875 c -0.046875,0.0625 -0.65625,0.0625 -0.78125,0.0625 H 1.171875 Z m 0,0"
             id="path58" />
        </g>
      </g>
    </g>
    <g
       id="g21"
       transform="matrix(1.2,0,0,1.2,26.687477,6.010707)">
      <g
         style="fill:#000000;fill-opacity:1"
         id="g10"
         transform="matrix(0.352778,0,0,0.352778,49.576263,103.14664)">
        <g
           id="g9"
           transform="translate(84.290001,10.294)">
          <path
             style="stroke:none"
             d="M 2.40625,-4.8125 H 3.5 c 0.234375,0 0.34375,0 0.34375,-0.203125 0,-0.140625 -0.0625,-0.140625 -0.3125,-0.140625 H 2.484375 l 0.4375,-1.734375 C 2.96875,-7.0625 2.96875,-7.09375 2.96875,-7.171875 c 0,-0.1875 -0.140625,-0.296875 -0.296875,-0.296875 -0.109375,0 -0.375,0.03125 -0.46875,0.421875 l -0.46875,1.890625 h -1.125 c -0.234375,0 -0.34375,0 -0.34375,0.234375 0,0.109375 0.078125,0.109375 0.3125,0.109375 h 1.0625 L 0.84375,-1.65625 c -0.09375,0.421875 -0.125,0.546875 -0.125,0.703125 0,0.5625 0.390625,1.078125 1.0625,1.078125 1.203125,0 1.859375,-1.75 1.859375,-1.828125 0,-0.078125 -0.0625,-0.109375 -0.125,-0.109375 -0.03125,0 -0.078125,0 -0.09375,0.046875 C 3.40625,-1.75 3.390625,-1.75 3.3125,-1.546875 c -0.25,0.59375 -0.796875,1.421875 -1.5,1.421875 -0.359375,0 -0.375,-0.296875 -0.375,-0.5625 0,0 0,-0.234375 0.03125,-0.375 z m 0,0"
             id="path8" />
        </g>
      </g>
      <g
         style="fill:#000000;fill-opacity:1"
         id="g12"
         transform="matrix(0.352778,0,0,0.352778,49.576263,103.14664)">
        <g
           id="g11"
           transform="translate(88.516998,12.088)">
          <path
             style="stroke:none"
             d="m 2.5,-5.078125 c 0,-0.21875 -0.015625,-0.21875 -0.234375,-0.21875 -0.328125,0.3125 -0.75,0.5 -1.5,0.5 v 0.265625 c 0.21875,0 0.640625,0 1.109375,-0.203125 v 4.078125 c 0,0.296875 -0.03125,0.390625 -0.78125,0.390625 H 0.8125 V 0 c 0.328125,-0.03125 1.015625,-0.03125 1.375,-0.03125 0.359375,0 1.046875,0 1.375,0.03125 V -0.265625 H 3.28125 c -0.75,0 -0.78125,-0.09375 -0.78125,-0.390625 z m 0,0"
             id="path10" />
        </g>
      </g>
    </g>
    <g
       id="g61"
       transform="matrix(1.2,0,0,1.2,53.145812,5.4815403)">
      <g
         style="fill:#000000;fill-opacity:1"
         id="g37"
         transform="matrix(0.352778,0,0,0.352778,49.576263,103.14664)">
        <g
           id="g36"
           transform="translate(84.290001,10.294)">
          <path
             style="stroke:none"
             d="M 2.40625,-4.8125 H 3.5 c 0.234375,0 0.34375,0 0.34375,-0.203125 0,-0.140625 -0.0625,-0.140625 -0.3125,-0.140625 H 2.484375 l 0.4375,-1.734375 C 2.96875,-7.0625 2.96875,-7.09375 2.96875,-7.171875 c 0,-0.1875 -0.140625,-0.296875 -0.296875,-0.296875 -0.109375,0 -0.375,0.03125 -0.46875,0.421875 l -0.46875,1.890625 h -1.125 c -0.234375,0 -0.34375,0 -0.34375,0.234375 0,0.109375 0.078125,0.109375 0.3125,0.109375 h 1.0625 L 0.84375,-1.65625 c -0.09375,0.421875 -0.125,0.546875 -0.125,0.703125 0,0.5625 0.390625,1.078125 1.0625,1.078125 1.203125,0 1.859375,-1.75 1.859375,-1.828125 0,-0.078125 -0.0625,-0.109375 -0.125,-0.109375 -0.03125,0 -0.078125,0 -0.09375,0.046875 C 3.40625,-1.75 3.390625,-1.75 3.3125,-1.546875 c -0.25,0.59375 -0.796875,1.421875 -1.5,1.421875 -0.359375,0 -0.375,-0.296875 -0.375,-0.5625 0,0 0,-0.234375 0.03125,-0.375 z m 0,0"
             id="path21" />
        </g>
      </g>
      <g
         style="fill:#000000;fill-opacity:1"
         id="g60"
         transform="matrix(0.352778,0,0,0.352778,49.576263,103.14664)">
        <g
           id="g59"
           transform="translate(88.516998,12.088)">
          <path
             style="stroke:none"
             d="m 2.5,-5.078125 c 0,-0.21875 -0.015625,-0.21875 -0.234375,-0.21875 -0.328125,0.3125 -0.75,0.5 -1.5,0.5 v 0.265625 c 0.21875,0 0.640625,0 1.109375,-0.203125 v 4.078125 c 0,0.296875 -0.03125,0.390625 -0.78125,0.390625 H 0.8125 V 0 c 0.328125,-0.03125 1.015625,-0.03125 1.375,-0.03125 0.359375,0 1.046875,0 1.375,0.03125 V -0.265625 H 3.28125 c -0.75,0 -0.78125,-0.09375 -0.78125,-0.390625 z m 0,0"
             id="path59" />
        </g>
      </g>
    </g>
    <g
       id="g66"
       transform="matrix(1.2,0,0,1.2,35.762074,-14.554717)">
      <g
         style="fill:#000000;fill-opacity:1"
         id="g63"
         transform="matrix(0.352778,0,0,0.352778,49.576263,103.14664)">
        <g
           id="g62"
           transform="translate(84.290001,10.294)">
          <path
             style="stroke:none"
             d="M 2.40625,-4.8125 H 3.5 c 0.234375,0 0.34375,0 0.34375,-0.203125 0,-0.140625 -0.0625,-0.140625 -0.3125,-0.140625 H 2.484375 l 0.4375,-1.734375 C 2.96875,-7.0625 2.96875,-7.09375 2.96875,-7.171875 c 0,-0.1875 -0.140625,-0.296875 -0.296875,-0.296875 -0.109375,0 -0.375,0.03125 -0.46875,0.421875 l -0.46875,1.890625 h -1.125 c -0.234375,0 -0.34375,0 -0.34375,0.234375 0,0.109375 0.078125,0.109375 0.3125,0.109375 h 1.0625 L 0.84375,-1.65625 c -0.09375,0.421875 -0.125,0.546875 -0.125,0.703125 0,0.5625 0.390625,1.078125 1.0625,1.078125 1.203125,0 1.859375,-1.75 1.859375,-1.828125 0,-0.078125 -0.0625,-0.109375 -0.125,-0.109375 -0.03125,0 -0.078125,0 -0.09375,0.046875 C 3.40625,-1.75 3.390625,-1.75 3.3125,-1.546875 c -0.25,0.59375 -0.796875,1.421875 -1.5,1.421875 -0.359375,0 -0.375,-0.296875 -0.375,-0.5625 0,0 0,-0.234375 0.03125,-0.375 z m 0,0"
             id="path61" />
        </g>
      </g>
      <g
         style="fill:#000000;fill-opacity:1"
         id="g65"
         transform="matrix(0.352778,0,0,0.352778,49.576263,103.14664)">
        <g
           id="g64"
           transform="translate(88.516998,12.088)">
          <path
             style="stroke:none"
             d="m 2.5,-5.078125 c 0,-0.21875 -0.015625,-0.21875 -0.234375,-0.21875 -0.328125,0.3125 -0.75,0.5 -1.5,0.5 v 0.265625 c 0.21875,0 0.640625,0 1.109375,-0.203125 v 4.078125 c 0,0.296875 -0.03125,0.390625 -0.78125,0.390625 H 0.8125 V 0 c 0.328125,-0.03125 1.015625,-0.03125 1.375,-0.03125 0.359375,0 1.046875,0 1.375,0.03125 V -0.265625 H 3.28125 c -0.75,0 -0.78125,-0.09375 -0.78125,-0.390625 z m 0,0"
             id="path63" />
        </g>
      </g>
    </g>
    <g
       id="g75"
       transform="matrix(1.2,0,0,1.2,50.07535,-20.554167)">
      <g
         style="fill:#000000;fill-opacity:1"
         id="g72"
         transform="matrix(0.352778,0,0,0.352778,49.576263,103.14664)">
        <g
           id="g71"
           transform="translate(84.290001,10.294)">
          <path
             style="stroke:none"
             d="M 2.40625,-4.8125 H 3.5 c 0.234375,0 0.34375,0 0.34375,-0.203125 0,-0.140625 -0.0625,-0.140625 -0.3125,-0.140625 H 2.484375 l 0.4375,-1.734375 C 2.96875,-7.0625 2.96875,-7.09375 2.96875,-7.171875 c 0,-0.1875 -0.140625,-0.296875 -0.296875,-0.296875 -0.109375,0 -0.375,0.03125 -0.46875,0.421875 l -0.46875,1.890625 h -1.125 c -0.234375,0 -0.34375,0 -0.34375,0.234375 0,0.109375 0.078125,0.109375 0.3125,0.109375 h 1.0625 L 0.84375,-1.65625 c -0.09375,0.421875 -0.125,0.546875 -0.125,0.703125 0,0.5625 0.390625,1.078125 1.0625,1.078125 1.203125,0 1.859375,-1.75 1.859375,-1.828125 0,-0.078125 -0.0625,-0.109375 -0.125,-0.109375 -0.03125,0 -0.078125,0 -0.09375,0.046875 C 3.40625,-1.75 3.390625,-1.75 3.3125,-1.546875 c -0.25,0.59375 -0.796875,1.421875 -1.5,1.421875 -0.359375,0 -0.375,-0.296875 -0.375,-0.5625 0,0 0,-0.234375 0.03125,-0.375 z m 0,0"
             id="path71" />
        </g>
      </g>
      <g
         style="fill:#000000;fill-opacity:1"
         id="g74"
         transform="matrix(0.352778,0,0,0.352778,49.576263,103.14664)">
        <g
           id="g73"
           transform="translate(88.516998,12.088)">
          <path
             style="stroke:none"
             d="m 2.5,-5.078125 c 0,-0.21875 -0.015625,-0.21875 -0.234375,-0.21875 -0.328125,0.3125 -0.75,0.5 -1.5,0.5 v 0.265625 c 0.21875,0 0.640625,0 1.109375,-0.203125 v 4.078125 c 0,0.296875 -0.03125,0.390625 -0.78125,0.390625 H 0.8125 V 0 c 0.328125,-0.03125 1.015625,-0.03125 1.375,-0.03125 0.359375,0 1.046875,0 1.375,0.03125 V -0.265625 H 3.28125 c -0.75,0 -0.78125,-0.09375 -0.78125,-0.390625 z m 0,0"
             id="path72" />
        </g>
      </g>
    </g>
    <g
       id="g80"
       transform="matrix(1.2,0,0,1.2,37.674939,-41.950397)">
      <g
         style="fill:#000000;fill-opacity:1"
         id="g77"
         transform="matrix(0.352778,0,0,0.352778,49.576263,103.14664)">
        <g
           id="g76"
           transform="translate(84.290001,10.294)">
          <path
             style="stroke:none"
             d="M 2.40625,-4.8125 H 3.5 c 0.234375,0 0.34375,0 0.34375,-0.203125 0,-0.140625 -0.0625,-0.140625 -0.3125,-0.140625 H 2.484375 l 0.4375,-1.734375 C 2.96875,-7.0625 2.96875,-7.09375 2.96875,-7.171875 c 0,-0.1875 -0.140625,-0.296875 -0.296875,-0.296875 -0.109375,0 -0.375,0.03125 -0.46875,0.421875 l -0.46875,1.890625 h -1.125 c -0.234375,0 -0.34375,0 -0.34375,0.234375 0,0.109375 0.078125,0.109375 0.3125,0.109375 h 1.0625 L 0.84375,-1.65625 c -0.09375,0.421875 -0.125,0.546875 -0.125,0.703125 0,0.5625 0.390625,1.078125 1.0625,1.078125 1.203125,0 1.859375,-1.75 1.859375,-1.828125 0,-0.078125 -0.0625,-0.109375 -0.125,-0.109375 -0.03125,0 -0.078125,0 -0.09375,0.046875 C 3.40625,-1.75 3.390625,-1.75 3.3125,-1.546875 c -0.25,0.59375 -0.796875,1.421875 -1.5,1.421875 -0.359375,0 -0.375,-0.296875 -0.375,-0.5625 0,0 0,-0.234375 0.03125,-0.375 z m 0,0"
             id="path75" />
        </g>
      </g>
      <g
         style="fill:#000000;fill-opacity:1"
         id="g79"
         transform="matrix(0.352778,0,0,0.352778,49.576263,103.14664)">
        <g
           id="g78"
           transform="translate(88.516998,12.088)">
          <path
             style="stroke:none"
             d="m 2.5,-5.078125 c 0,-0.21875 -0.015625,-0.21875 -0.234375,-0.21875 -0.328125,0.3125 -0.75,0.5 -1.5,0.5 v 0.265625 c 0.21875,0 0.640625,0 1.109375,-0.203125 v 4.078125 c 0,0.296875 -0.03125,0.390625 -0.78125,0.390625 H 0.8125 V 0 c 0.328125,-0.03125 1.015625,-0.03125 1.375,-0.03125 0.359375,0 1.046875,0 1.375,0.03125 V -0.265625 H 3.28125 c -0.75,0 -0.78125,-0.09375 -0.78125,-0.390625 z m 0,0"
             id="path77" />
        </g>
      </g>
    </g>
    <path
       style="fill:#000000;stroke-width:1;stroke-linecap:round;marker-end:;stroke-dasharray:none"
       d="M 136.75191,136.30515 158.97444,97.765515"
       id="path80" />
    <path
       style="fill:none;stroke:#000000;stroke-width:0.3;stroke-linecap:round;stroke-dasharray:none;marker-end:url(#marker83)"
       d="m 156.55591,101.95987 1.72978,-2.999878"
       id="path81" />
    <path
       style="fill:none;stroke:#000000;stroke-width:0.3;stroke-linecap:round;stroke-dasharray:none;marker-end:url(#marker83)"
       d="M 117.14698,102.30507 115.4172,99.305191"
       id="path84" />
  </g>
</svg>
