<?xml version="1.0" encoding="UTF-8" standalone="no"?>
<!-- Created with Inkscape (http://www.inkscape.org/) -->

<svg
   width="170mm"
   height="56.924789mm"
   viewBox="0 0 170 56.924789"
   version="1.1"
   id="svg5"
   inkscape:version="1.3.2 (1:1.3.2+202311252150+091e20ef0f)"
   sodipodi:docname="superconductors_quantum_dot.svg"
   xml:space="preserve"
   xmlns:inkscape="http://www.inkscape.org/namespaces/inkscape"
   xmlns:sodipodi="http://sodipodi.sourceforge.net/DTD/sodipodi-0.dtd"
   xmlns:xlink="http://www.w3.org/1999/xlink"
   xmlns="http://www.w3.org/2000/svg"
   xmlns:svg="http://www.w3.org/2000/svg"><sodipodi:namedview
     id="namedview7"
     pagecolor="#ffffff"
     bordercolor="#000000"
     borderopacity="0.25"
     inkscape:showpageshadow="2"
     inkscape:pageopacity="0.0"
     inkscape:pagecheckerboard="0"
     inkscape:deskcolor="#d1d1d1"
     inkscape:document-units="mm"
     showgrid="false"
     inkscape:zoom="1.3861484"
     inkscape:cx="325.00127"
     inkscape:cy="44.006831"
     inkscape:window-width="1850"
     inkscape:window-height="1016"
     inkscape:window-x="0"
     inkscape:window-y="0"
     inkscape:window-maximized="1"
     inkscape:current-layer="svg5" /><defs
     id="defs2"><inkscape:path-effect
       effect="bspline"
       id="path-effect65"
       is_visible="true"
       lpeversion="1.3"
       weight="33.333333"
       steps="2"
       helper_size="0"
       apply_no_weight="true"
       apply_with_weight="true"
       only_selected="false"
       uniform="false" /><inkscape:path-effect
       effect="bspline"
       id="path-effect62"
       is_visible="true"
       lpeversion="1.3"
       weight="33.333333"
       steps="2"
       helper_size="0"
       apply_no_weight="true"
       apply_with_weight="true"
       only_selected="false"
       uniform="false" /><inkscape:path-effect
       effect="powerclip"
       id="path-effect61"
       is_visible="true"
       lpeversion="1"
       inverse="true"
       flatten="false"
       hide_clip="false"
       message="Use fill-rule evenodd on &lt;b&gt;fill and stroke&lt;/b&gt; dialog if no flatten result after convert clip to paths." /><inkscape:path-effect
       effect="bspline"
       id="path-effect42"
       is_visible="true"
       lpeversion="1.3"
       weight="33.333333"
       steps="2"
       helper_size="0"
       apply_no_weight="true"
       apply_with_weight="true"
       only_selected="false"
       uniform="false" /><inkscape:path-effect
       effect="powerclip"
       id="path-effect38"
       is_visible="true"
       lpeversion="1"
       inverse="true"
       flatten="false"
       hide_clip="false"
       message="Use fill-rule evenodd on &lt;b&gt;fill and stroke&lt;/b&gt; dialog if no flatten result after convert clip to paths." /><inkscape:path-effect
       effect="bspline"
       id="path-effect36"
       is_visible="true"
       lpeversion="1.3"
       weight="33.333333"
       steps="2"
       helper_size="0"
       apply_no_weight="true"
       apply_with_weight="true"
       only_selected="false"
       uniform="false" /><inkscape:path-effect
       effect="powerclip"
       id="path-effect34"
       is_visible="true"
       lpeversion="1"
       inverse="true"
       flatten="false"
       hide_clip="false"
       message="Use fill-rule evenodd on &lt;b&gt;fill and stroke&lt;/b&gt; dialog if no flatten result after convert clip to paths." /><inkscape:path-effect
       effect="powerclip"
       id="path-effect32"
       is_visible="true"
       lpeversion="1"
       inverse="true"
       flatten="false"
       hide_clip="false"
       message="Use fill-rule evenodd on &lt;b&gt;fill and stroke&lt;/b&gt; dialog if no flatten result after convert clip to paths." /><inkscape:path-effect
       effect="powerclip"
       id="path-effect29"
       is_visible="true"
       lpeversion="1"
       inverse="true"
       flatten="false"
       hide_clip="false"
       message="Use fill-rule evenodd on &lt;b&gt;fill and stroke&lt;/b&gt; dialog if no flatten result after convert clip to paths." /><inkscape:path-effect
       effect="powerclip"
       id="path-effect28"
       is_visible="true"
       lpeversion="1"
       inverse="true"
       flatten="false"
       hide_clip="false"
       message="Use fill-rule evenodd on &lt;b&gt;fill and stroke&lt;/b&gt; dialog if no flatten result after convert clip to paths." /><inkscape:path-effect
       effect="bspline"
       id="path-effect27"
       is_visible="true"
       lpeversion="1.3"
       weight="33.333333"
       steps="2"
       helper_size="0"
       apply_no_weight="true"
       apply_with_weight="true"
       only_selected="false"
       uniform="false" /><inkscape:path-effect
       effect="bspline"
       id="path-effect26"
       is_visible="true"
       lpeversion="1.3"
       weight="33.333333"
       steps="2"
       helper_size="0"
       apply_no_weight="true"
       apply_with_weight="true"
       only_selected="false"
       uniform="false" /><inkscape:path-effect
       effect="bspline"
       id="path-effect24"
       is_visible="true"
       lpeversion="1.3"
       weight="33.333333"
       steps="2"
       helper_size="0"
       apply_no_weight="true"
       apply_with_weight="true"
       only_selected="false"
       uniform="false" /><inkscape:path-effect
       effect="bspline"
       id="path-effect20"
       is_visible="true"
       lpeversion="1.3"
       weight="33.333333"
       steps="2"
       helper_size="0"
       apply_no_weight="true"
       apply_with_weight="true"
       only_selected="false"
       uniform="false" /><inkscape:path-effect
       effect="bspline"
       id="path-effect18"
       is_visible="true"
       lpeversion="1.3"
       weight="33.333333"
       steps="2"
       helper_size="0"
       apply_no_weight="true"
       apply_with_weight="true"
       only_selected="false"
       uniform="false" /><inkscape:path-effect
       effect="bspline"
       id="path-effect16"
       is_visible="true"
       lpeversion="1.3"
       weight="33.333333"
       steps="2"
       helper_size="0"
       apply_no_weight="true"
       apply_with_weight="true"
       only_selected="false"
       uniform="false" /><inkscape:path-effect
       effect="bspline"
       id="path-effect15"
       is_visible="true"
       lpeversion="1.3"
       weight="33.333333"
       steps="2"
       helper_size="0"
       apply_no_weight="true"
       apply_with_weight="true"
       only_selected="false"
       uniform="false" /><inkscape:path-effect
       effect="bspline"
       id="path-effect13"
       is_visible="true"
       lpeversion="1.3"
       weight="33.333333"
       steps="2"
       helper_size="0"
       apply_no_weight="true"
       apply_with_weight="true"
       only_selected="false"
       uniform="false" /><inkscape:path-effect
       effect="bspline"
       id="path-effect11"
       is_visible="true"
       lpeversion="1.3"
       weight="33.333333"
       steps="2"
       helper_size="0"
       apply_no_weight="true"
       apply_with_weight="true"
       only_selected="false"
       uniform="false" /><inkscape:path-effect
       effect="bspline"
       id="path-effect9"
       is_visible="true"
       lpeversion="1.3"
       weight="33.333333"
       steps="2"
       helper_size="0"
       apply_no_weight="true"
       apply_with_weight="true"
       only_selected="false"
       uniform="false" /><inkscape:path-effect
       effect="bspline"
       id="path-effect8"
       is_visible="true"
       lpeversion="1.3"
       weight="33.333333"
       steps="2"
       helper_size="0"
       apply_no_weight="true"
       apply_with_weight="true"
       only_selected="false"
       uniform="false" /><inkscape:path-effect
       effect="bspline"
       id="path-effect2"
       is_visible="true"
       lpeversion="1.3"
       weight="33.333333"
       steps="2"
       helper_size="0"
       apply_no_weight="true"
       apply_with_weight="true"
       only_selected="false"
       uniform="false" /><inkscape:path-effect
       effect="bspline"
       id="path-effect1"
       is_visible="true"
       lpeversion="1.3"
       weight="33.333333"
       steps="2"
       helper_size="0"
       apply_no_weight="true"
       apply_with_weight="true"
       only_selected="false"
       uniform="false" /><clipPath
       clipPathUnits="userSpaceOnUse"
       id="clipPath4"><rect
         style="fill:none;stroke:#3f90da;stroke-width:1;stroke-linecap:round;stroke-linejoin:round;stroke-dasharray:none;stroke-dashoffset:24.948"
         id="rect4"
         width="61.82711"
         height="32.581066"
         x="103.72107"
         y="60.960346" /></clipPath><clipPath
       clipPathUnits="userSpaceOnUse"
       id="clipPath5"><rect
         style="fill:none;stroke:#3f90da;stroke-width:1;stroke-linecap:round;stroke-linejoin:round;stroke-dasharray:none;stroke-dashoffset:24.948"
         id="rect6"
         width="21.297972"
         height="34.919445"
         x="104.57043"
         y="56.274967" /></clipPath><clipPath
       clipPathUnits="userSpaceOnUse"
       id="clipPath7"><rect
         style="fill:none;stroke:#3f90da;stroke-width:1;stroke-linecap:round;stroke-linejoin:round;stroke-dasharray:none;stroke-dashoffset:24.948"
         id="rect8"
         width="22.128368"
         height="18.280909"
         x="103.24003"
         y="60.960346" /></clipPath><clipPath
       clipPathUnits="userSpaceOnUse"
       id="clipPath7-3"><rect
         style="fill:none;stroke:#3f90da;stroke-width:1;stroke-linecap:round;stroke-linejoin:round;stroke-dasharray:none;stroke-dashoffset:24.948"
         id="rect8-6"
         width="22.128368"
         height="18.280909"
         x="103.24003"
         y="60.960346" /></clipPath><inkscape:path-effect
       effect="bspline"
       id="path-effect9-7"
       is_visible="true"
       lpeversion="1.3"
       weight="33.333333"
       steps="2"
       helper_size="0"
       apply_no_weight="true"
       apply_with_weight="true"
       only_selected="false"
       uniform="false" /><clipPath
       clipPathUnits="userSpaceOnUse"
       id="clipPath28"><ellipse
         style="display:none;fill:none;fill-opacity:1;stroke:#1b568c;stroke-width:0.499999;stroke-linecap:round;stroke-linejoin:round;stroke-dasharray:none;stroke-dashoffset:24.948;stroke-opacity:1"
         id="ellipse28"
         cx="138.93649"
         cy="57.24361"
         rx="22.679554"
         ry="22.53031"
         d="M 161.61605,57.24361 A 22.679554,22.53031 0 0 1 138.93649,79.77392 22.679554,22.53031 0 0 1 116.25694,57.24361 22.679554,22.53031 0 0 1 138.93649,34.713301 22.679554,22.53031 0 0 1 161.61605,57.24361 Z" /><path
         id="lpe_path-effect28"
         style="fill:none;fill-opacity:1;stroke:#1b568c;stroke-width:0.499999;stroke-linecap:round;stroke-linejoin:round;stroke-dasharray:none;stroke-dashoffset:24.948;stroke-opacity:1"
         class="powerclip"
         d="m 108.82331,55.960346 h 32.12836 v 28.313575 h -32.12836 z m 52.79274,1.283264 A 22.679554,22.53031 0 0 0 138.93649,34.713301 22.679554,22.53031 0 0 0 116.25694,57.24361 22.679554,22.53031 0 0 0 138.93649,79.77392 22.679554,22.53031 0 0 0 161.61605,57.24361 Z" /></clipPath><clipPath
       clipPathUnits="userSpaceOnUse"
       id="clipPath29"><rect
         style="display:none;fill:#a4dbff;fill-opacity:1;stroke:none;stroke-width:0.494661;stroke-linecap:round;stroke-linejoin:round;stroke-dasharray:none;stroke-dashoffset:24.948;stroke-opacity:1"
         id="rect29"
         width="8.533083"
         height="18.082186"
         x="94.706947"
         y="67.666679"
         d="m 94.706947,67.666679 h 8.533083 v 18.082186 h -8.533083 z" /><path
         id="lpe_path-effect29"
         style="fill:#a4dbff;fill-opacity:1;stroke:none;stroke-width:0.494661;stroke-linecap:round;stroke-linejoin:round;stroke-dasharray:none;stroke-dashoffset:24.948;stroke-opacity:1"
         class="powerclip"
         d="m 97.74003,73.741261 h 33.08631 v 11.03266 H 97.74003 Z m -3.033083,-6.074582 v 18.082186 h 8.533083 V 67.666679 Z" /></clipPath><clipPath
       clipPathUnits="userSpaceOnUse"
       id="clipath_lpe_path-effect32"><ellipse
         style="display:none;fill:none;fill-opacity:1;stroke:#1b568c;stroke-width:0.499999;stroke-linecap:round;stroke-linejoin:round;stroke-dasharray:none;stroke-dashoffset:24.948;stroke-opacity:1"
         id="ellipse32"
         cx="138.93649"
         cy="57.24361"
         rx="22.679554"
         ry="22.53031" /></clipPath><clipPath
       clipPathUnits="userSpaceOnUse"
       id="clipath_lpe_path-effect34"><ellipse
         style="display:none;fill:none;fill-opacity:1;stroke:#1b568c;stroke-width:0.499999;stroke-linecap:round;stroke-linejoin:round;stroke-dasharray:none;stroke-dashoffset:24.948;stroke-opacity:1"
         id="ellipse34"
         cx="138.93649"
         cy="57.24361"
         rx="22.679554"
         ry="22.53031"
         d="M 161.61605,57.24361 A 22.679554,22.53031 0 0 1 138.93649,79.77392 22.679554,22.53031 0 0 1 116.25694,57.24361 22.679554,22.53031 0 0 1 138.93649,34.713301 22.679554,22.53031 0 0 1 161.61605,57.24361 Z" /><path
         id="lpe_path-effect34"
         style="fill:none;fill-opacity:1;stroke:#1b568c;stroke-width:0.499999;stroke-linecap:round;stroke-linejoin:round;stroke-dasharray:none;stroke-dashoffset:24.948;stroke-opacity:1"
         class="powerclip"
         d="m 108.82331,55.960346 h 32.12836 v 28.313575 h -32.12836 z m 52.79274,1.283264 A 22.679554,22.53031 0 0 0 138.93649,34.713301 22.679554,22.53031 0 0 0 116.25694,57.24361 22.679554,22.53031 0 0 0 138.93649,79.77392 22.679554,22.53031 0 0 0 161.61605,57.24361 Z" /></clipPath><clipPath
       clipPathUnits="userSpaceOnUse"
       id="clipath_lpe_path-effect38"><rect
         style="display:none;fill:#a4dbff;fill-opacity:1;stroke:none;stroke-width:0.494661;stroke-linecap:round;stroke-linejoin:round;stroke-dasharray:none;stroke-dashoffset:24.948;stroke-opacity:1"
         id="rect38"
         width="8.533083"
         height="18.082186"
         x="94.706947"
         y="67.666679"
         d="m 94.706947,67.666679 h 8.533083 v 18.082186 h -8.533083 z" /><path
         id="lpe_path-effect38"
         style="fill:#a4dbff;fill-opacity:1;stroke:none;stroke-width:0.494661;stroke-linecap:round;stroke-linejoin:round;stroke-dasharray:none;stroke-dashoffset:24.948;stroke-opacity:1"
         class="powerclip"
         d="m 97.74003,73.741261 h 33.08631 v 11.03266 H 97.74003 Z m -3.033083,-6.074582 v 18.082186 h 8.533083 V 67.666679 Z" /></clipPath><clipPath
       clipPathUnits="userSpaceOnUse"
       id="clipPath60"><rect
         style="display:block;fill:none;stroke:#b84624;stroke-width:0.499999;stroke-linecap:round;stroke-linejoin:round;stroke-dashoffset:24.948"
         id="rect61"
         width="90.392914"
         height="70.126854"
         x="27.753805"
         y="29.672449" /></clipPath></defs><g
     inkscape:label="Layer 1"
     inkscape:groupmode="layer"
     id="layer1"
     transform="translate(-118.61496,-60.960346)"><path
       style="fill:#c9e8ff;fill-opacity:1;stroke:none;stroke-width:0.499999;stroke-linecap:round;stroke-linejoin:round;stroke-dasharray:none;stroke-dashoffset:24.948;stroke-opacity:1"
       d="m 113.82336,79.241261 22.08631,0.03266 0.042,-18.313575 h -22.12836 v 18.280915"
       id="path27"
       clip-path="url(#clipPath28)"
       inkscape:path-effect="#path-effect28"
       inkscape:original-d="m 113.82336,79.241261 22.08631,0.03266 0.042,-18.313575 h -22.12836 v 18.280915"
       transform="translate(42.333335)" /><ellipse
       style="fill:none;stroke:#3f90da;stroke-width:1;stroke-linecap:round;stroke-linejoin:round;stroke-dasharray:none;stroke-dashoffset:24.948"
       id="path3"
       cx="125.32634"
       cy="58.106403"
       rx="19.152733"
       ry="21.167519"
       clip-path="url(#clipPath7)"
       transform="translate(52.916669)" /><path
       style="fill:none;stroke:#3f90da;stroke-width:1;stroke-linecap:round;stroke-linejoin:round;stroke-dasharray:none;stroke-dashoffset:24.948"
       d="m 125.32634,79.273921 c -7.3621,-0.01089 -14.72421,-0.02177 -22.08631,-0.03266"
       id="path8"
       inkscape:path-effect="#path-effect9;#path-effect29"
       inkscape:original-d="m 125.32634,79.273921 c -7.3621,-0.0109 -14.72421,-0.02178 -22.08631,-0.03266"
       transform="matrix(1.0000184,0,0,1.0216785,52.914712,-1.7181845)"
       clip-path="url(#clipPath29)" /><circle
       style="fill:#fbe3de;fill-opacity:1;stroke:#b84624;stroke-width:0.654613;stroke-linecap:round;stroke-linejoin:round;stroke-dasharray:none;stroke-dashoffset:24.948;stroke-opacity:1"
       id="path40"
       cx="210.92661"
       cy="89.347298"
       r="9.6726933" /><path
       style="fill:#3f90da;fill-opacity:1;stroke:#373737;stroke-width:0.5;stroke-linecap:round;stroke-linejoin:round;stroke-dasharray:none;stroke-dashoffset:24.948;stroke-opacity:1"
       d="m 162.54029,89.347297 c 4.03529,0 8.07058,0 12.10587,0"
       id="path15"
       inkscape:path-effect="#path-effect16"
       inkscape:original-d="m 162.54029,89.347297 c 4.03529,0 8.07058,0 12.10587,0"
       transform="translate(42.333335)" /><ellipse
       style="fill:none;stroke:#373737;stroke-width:0.5;stroke-linecap:round;stroke-linejoin:round;stroke-dasharray:none;stroke-dashoffset:24.948;stroke-opacity:1"
       id="path16"
       cx="169.84647"
       cy="89.882797"
       rx="6.7430458"
       ry="3.2602482" /><g
       id="path18"
       transform="matrix(1,0,0,1.4244012,51.675189,-37.139577)"><path
         style="color:#000000;fill:#373737;stroke-linecap:round;stroke-linejoin:round;stroke-dashoffset:24.948;-inkscape-stroke:none"
         d="m 115.87109,86.373047 a 0.25010833,0.25010833 0 0 0 -0.25,0.25 v 6.519531 a 0.25010833,0.25010833 0 0 0 0.25,0.25 0.25010833,0.25010833 0 0 0 0.25,-0.25 v -6.519531 a 0.25010833,0.25010833 0 0 0 -0.25,-0.25 z"
         id="path74" /><g
         id="g73"><path
           style="color:#000000;fill:#373737;-inkscape-stroke:none"
           d="m 114.54688,91.589844 -0.35352,0.353515 1.67773,1.677735 1.67774,-1.677735 -0.35352,-0.353515 -1.32422,1.324218 z"
           id="path73" /></g></g><ellipse
       style="fill:#000000;fill-opacity:1;stroke:#373737;stroke-width:0.5;stroke-linecap:round;stroke-linejoin:round;stroke-dasharray:none;stroke-dashoffset:24.948;stroke-opacity:1"
       id="path17"
       cx="167.45831"
       cy="89.795288"
       rx="1.6484265"
       ry="1.6484264" /><g
       id="path19"
       transform="matrix(1,0,0,-1.4244012,56.966856,216.91855)"><path
         style="color:#000000;fill:#373737;stroke-linecap:round;stroke-linejoin:round;stroke-dashoffset:24.948;-inkscape-stroke:none"
         d="m 115.87109,86.373047 a 0.24999949,0.24999949 0 0 0 -0.25,0.25 v 6.519531 a 0.24999949,0.24999949 0 0 0 0.25,0.25 0.24999949,0.24999949 0 0 0 0.25,-0.25 v -6.519531 a 0.24999949,0.24999949 0 0 0 -0.25,-0.25 z"
         id="path76" /><g
         id="g75"><path
           style="color:#000000;fill:#373737;-inkscape-stroke:none"
           d="m 114.54883,91.591797 -0.35352,0.353515 1.67578,1.675782 1.67774,-1.675782 -0.35352,-0.353515 -1.32422,1.322265 z"
           id="path75" /></g></g><ellipse
       style="fill:#000000;fill-opacity:1;stroke:#373737;stroke-width:0.5;stroke-linecap:round;stroke-linejoin:round;stroke-dasharray:none;stroke-dashoffset:24.948;stroke-opacity:1"
       id="ellipse17"
       cx="172.75"
       cy="89.795288"
       rx="1.6484265"
       ry="1.6484264" /><ellipse
       style="fill:none;stroke:#373737;stroke-width:0.5;stroke-linecap:round;stroke-linejoin:round;stroke-dasharray:none;stroke-dashoffset:24.948;stroke-opacity:1"
       id="ellipse20"
       cx="252.92581"
       cy="89.882797"
       rx="6.7430458"
       ry="3.2602482" /><g
       id="path23"
       transform="matrix(1,0,0,-1.4244012,140.04601,216.91855)"><path
         style="color:#000000;fill:#373737;stroke-linecap:round;stroke-linejoin:round;stroke-dashoffset:24.948;-inkscape-stroke:none"
         d="m 115.87109,86.373047 a 0.24999949,0.24999949 0 0 0 -0.25,0.25 v 6.519531 a 0.24999949,0.24999949 0 0 0 0.25,0.25 0.24999949,0.24999949 0 0 0 0.25,-0.25 v -6.519531 a 0.24999949,0.24999949 0 0 0 -0.25,-0.25 z"
         id="path82" /><g
         id="g81"><path
           style="color:#000000;fill:#373737;-inkscape-stroke:none"
           d="m 114.54883,91.591797 -0.35352,0.353515 1.67578,1.675782 1.67774,-1.675782 -0.35352,-0.353515 -1.32422,1.322265 z"
           id="path81" /></g></g><ellipse
       style="fill:#000000;fill-opacity:1;stroke:#373737;stroke-width:0.5;stroke-linecap:round;stroke-linejoin:round;stroke-dasharray:none;stroke-dashoffset:24.948;stroke-opacity:1"
       id="ellipse22"
       cx="255.82935"
       cy="89.795288"
       rx="1.6484265"
       ry="1.6484264" /><g
       id="path22"
       transform="matrix(1,0,0,1.4244012,134.75434,-37.139577)"><path
         style="color:#000000;fill:#373737;stroke-linecap:round;stroke-linejoin:round;stroke-dashoffset:24.948;-inkscape-stroke:none"
         d="m 115.87109,86.373047 a 0.24999949,0.24999949 0 0 0 -0.25,0.25 v 6.519531 a 0.24999949,0.24999949 0 0 0 0.25,0.25 0.24999949,0.24999949 0 0 0 0.25,-0.25 v -6.519531 a 0.24999949,0.24999949 0 0 0 -0.25,-0.25 z"
         id="path80" /><g
         id="g79"><path
           style="color:#000000;fill:#373737;-inkscape-stroke:none"
           d="m 114.54883,91.591797 -0.35352,0.353515 1.67578,1.675782 1.67774,-1.675782 -0.35352,-0.353515 -1.32422,1.322265 z"
           id="path79" /></g></g><ellipse
       style="fill:#000000;fill-opacity:1;stroke:#373737;stroke-width:0.5;stroke-linecap:round;stroke-linejoin:round;stroke-dasharray:none;stroke-dashoffset:24.948;stroke-opacity:1"
       id="ellipse21"
       cx="250.53767"
       cy="89.795288"
       rx="1.6484265"
       ry="1.6484264" /><use
       x="0"
       y="0"
       xlink:href="#path27"
       id="use29"
       transform="matrix(-1,0,0,1,422.7709,0)" /><use
       x="0"
       y="0"
       xlink:href="#path3"
       id="use30"
       transform="matrix(-1,0,0,1,422.7709,0)" /><use
       x="0"
       y="0"
       xlink:href="#path8"
       id="use31"
       transform="matrix(-1,0,0,1,422.7709,0)" /><path
       style="fill:#67c2ff;fill-opacity:1;stroke:none;stroke-width:0.499999;stroke-linecap:round;stroke-linejoin:round;stroke-dasharray:none;stroke-dashoffset:24.948;stroke-opacity:1"
       d="m 113.82336,79.241261 22.08631,0.03266 0.042,-18.313575 h -22.12836 v 18.280915"
       id="path32"
       clip-path="url(#clipath_lpe_path-effect34)"
       inkscape:path-effect="#path-effect34"
       inkscape:original-d="m 113.82336,79.241261 22.08631,0.03266 0.042,-18.313575 h -22.12836 v 18.280915"
       transform="matrix(1,0,0,-1,42.333335,178.84548)" /><ellipse
       style="fill:none;stroke:#3f90da;stroke-width:1;stroke-linecap:round;stroke-linejoin:round;stroke-dasharray:none;stroke-dashoffset:24.948"
       id="ellipse33"
       cx="125.32634"
       cy="58.106403"
       rx="19.152733"
       ry="21.167519"
       clip-path="url(#clipPath7)"
       transform="matrix(1,0,0,-1,52.916669,178.84548)" /><path
       style="fill:none;stroke:#3f90da;stroke-width:1;stroke-linecap:round;stroke-linejoin:round;stroke-dasharray:none;stroke-dashoffset:24.948"
       d="m 125.32634,79.273921 c -7.3621,-0.01089 -14.72421,-0.02177 -22.08631,-0.03266"
       id="path33"
       inkscape:path-effect="#path-effect36;#path-effect38"
       inkscape:original-d="m 125.32634,79.273921 c -7.3621,-0.0109 -14.72421,-0.02178 -22.08631,-0.03266"
       transform="matrix(1.0000184,0,0,-1.0216785,52.914712,180.56366)"
       clip-path="url(#clipath_lpe_path-effect38)" /><use
       x="0"
       y="0"
       xlink:href="#path32"
       id="use38"
       transform="matrix(-1,0,0,1,422.77091,0)" /><use
       x="0"
       y="0"
       xlink:href="#ellipse33"
       id="use39"
       transform="matrix(-1,0,0,1,422.77091,0)" /><use
       x="0"
       y="0"
       xlink:href="#path33"
       id="use40"
       transform="matrix(-1,0,0,1,422.77091,0)" /><g
       id="path41"
       transform="matrix(1,0,0,-1.4244012,97.712691,216.91855)"><path
         style="color:#000000;fill:#373737;stroke-linecap:round;stroke-linejoin:round;stroke-dashoffset:24.948;-inkscape-stroke:none"
         d="m 115.87109,86.373047 a 0.24999949,0.24999949 0 0 0 -0.25,0.25 v 6.519531 a 0.24999949,0.24999949 0 0 0 0.25,0.25 0.24999949,0.24999949 0 0 0 0.25,-0.25 v -6.519531 a 0.24999949,0.24999949 0 0 0 -0.25,-0.25 z"
         id="path78" /><g
         id="g77"><path
           style="color:#000000;fill:#373737;-inkscape-stroke:none"
           d="m 114.54883,91.591797 -0.35352,0.353515 1.67578,1.675782 1.67774,-1.675782 -0.35352,-0.353515 -1.32422,1.322265 z"
           id="path77" /></g></g><ellipse
       style="fill:#000000;fill-opacity:1;stroke:#373737;stroke-width:0.5;stroke-linecap:round;stroke-linejoin:round;stroke-dasharray:none;stroke-dashoffset:24.948;stroke-opacity:1"
       id="ellipse41"
       cx="213.4959"
       cy="89.795288"
       rx="1.6484265"
       ry="1.6484264" /></g><g
     inkscape:groupmode="layer"
     id="layer2"
     inkscape:label="Layer 2"
     transform="translate(-20.556863,-10.813046)" /><g
     inkscape:label=""
     transform="translate(28.812138,16.709279)"
     id="g13"><g
   id="g12"
   transform="matrix(0.352778,0,0,0.352778,-0.934597,-0.550554)">
    <g
   style="fill:#000000;fill-opacity:1"
   id="g11">
      <g
   id="g10"
   transform="translate(1.993,11.795)">
        <path
   style="stroke:none"
   d="m 6.1875,-9.984375 c -0.109375,-0.203125 -0.140625,-0.25 -0.328125,-0.25 -0.21875,0 -0.25,0.04687 -0.34375,0.25 L 0.71875,-0.28125 C 0.6875,-0.25 0.65625,-0.15625 0.65625,-0.09375 0.65625,-0.015625 0.671875,0 0.96875,0 h 9.765625 c 0.28125,0 0.296875,-0.015625 0.296875,-0.09375 0,-0.0625 -0.03125,-0.15625 -0.0625,-0.1875 z m -0.78125,1.0625 3.921875,7.9375 H 1.5 Z m 0,0"
   id="path9" />
      </g>
    </g>
  </g>
</g><g
     inkscape:label=""
     transform="translate(90.95525,41.066552)"
     id="g17"><g
   id="g16"
   transform="matrix(0.352778,0,0,0.352778,-1.04484,-0.704894)">
    <g
   style="fill:#000000;fill-opacity:1"
   id="g15">
      <g
   id="g14"
   transform="translate(1.993,11.795)">
        <path
   style="stroke:none"
   d="m 7.265625,-3.296875 c -0.515625,2 -2.171875,3.1875 -3.515625,3.1875 -1.03125,0 -1.734375,-0.6875 -1.734375,-1.890625 0,-0.046875 0,-0.484375 0.15625,-1.109375 L 3.578125,-8.75 c 0.125,-0.484375 0.15625,-0.625 1.171875,-0.625 0.25,0 0.40625,0 0.40625,-0.265625 0,-0.15625 -0.140625,-0.15625 -0.21875,-0.15625 -0.265625,0 -0.5625,0.03125 -0.828125,0.03125 H 2.40625 c -0.265625,0 -0.5625,-0.03125 -0.84375,-0.03125 -0.09375,0 -0.265625,0 -0.265625,0.265625 0,0.15625 0.09375,0.15625 0.359375,0.15625 0.875,0 0.875,0.109375 0.875,0.265625 0,0.09375 -0.109375,0.5 -0.171875,0.75 l -1.25,5.015625 C 1.0625,-3.1875 0.96875,-2.796875 0.96875,-2.40625 c 0,1.578125 1.140625,2.703125 2.703125,2.703125 1.453125,0 3.0625,-1.140625 3.78125,-2.96875 C 7.5625,-2.90625 7.6875,-3.40625 7.78125,-3.796875 7.921875,-4.3125 8.21875,-5.578125 8.3125,-5.953125 l 0.546875,-2.15625 c 0.1875,-0.734375 0.3125,-1.21875 1.5625,-1.265625 0.125,-0.015625 0.171875,-0.140625 0.171875,-0.265625 0,-0.15625 -0.125,-0.15625 -0.1875,-0.15625 -0.1875,0 -0.453125,0.03125 -0.65625,0.03125 H 9.078125 c -0.890625,0 -1.34375,-0.03125 -1.359375,-0.03125 -0.09375,0 -0.265625,0 -0.265625,0.265625 0,0.15625 0.125,0.15625 0.21875,0.15625 0.859375,0.015625 0.921875,0.359375 0.921875,0.609375 0,0.125 0,0.171875 -0.0625,0.375 z m 0,0"
   id="path13" />
      </g>
    </g>
  </g>
</g><g
     inkscape:label=""
     transform="translate(84.264599,12.232231)"
     id="g24"><g
   id="g23"
   transform="matrix(0.352778,0,0,0.352778,-0.934597,-0.704894)">
    <g
   style="fill:#000000;fill-opacity:1"
   id="g20">
      <g
   id="use5"
   transform="translate(1.993,11.795)">
        <path
   style="stroke:none"
   d="M 10.609375,-8.296875 C 10.765625,-8.90625 11,-9.34375 12.09375,-9.375 c 0.04687,0 0.21875,-0.015625 0.21875,-0.265625 0,-0.15625 -0.140625,-0.15625 -0.1875,-0.15625 -0.296875,0 -1.015625,0.03125 -1.3125,0.03125 H 10.125 c -0.203125,0 -0.453125,-0.03125 -0.65625,-0.03125 -0.09375,0 -0.265625,0 -0.265625,0.265625 0,0.15625 0.125,0.15625 0.21875,0.15625 0.859375,0.015625 0.921875,0.359375 0.921875,0.609375 0,0.125 -0.01563,0.171875 -0.0625,0.375 l -1.625,6.46875 -3.0625,-7.625 c -0.09375,-0.234375 -0.109375,-0.25 -0.4375,-0.25 h -1.75 C 3.125,-9.796875 3,-9.796875 3,-9.53125 3,-9.375 3.09375,-9.375 3.375,-9.375 c 0.0625,0 0.90625,0 0.90625,0.125 0,0.03125 -0.015625,0.140625 -0.03125,0.1875 l -1.90625,7.59375 c -0.171875,0.703125 -0.515625,1.015625 -1.46875,1.046875 -0.078125,0 -0.21875,0.015625 -0.21875,0.28125 C 0.65625,0 0.796875,0 0.84375,0 1.140625,0 1.859375,-0.03125 2.15625,-0.03125 h 0.6875 C 3.046875,-0.03125 3.28125,0 3.484375,0 3.578125,0 3.75,0 3.75,-0.265625 3.75,-0.40625 3.59375,-0.421875 3.546875,-0.421875 3.0625,-0.4375 2.609375,-0.515625 2.609375,-1.03125 c 0,-0.109375 0.03125,-0.25 0.0625,-0.359375 L 4.609375,-9.0625 C 4.6875,-8.921875 4.6875,-8.890625 4.75,-8.765625 l 3.40625,8.5 C 8.234375,-0.09375 8.265625,0 8.390625,0 8.53125,0 8.546875,-0.046875 8.609375,-0.28125 Z m 0,0"
   id="path20" />
      </g>
    </g>
    <g
   style="fill:#000000;fill-opacity:1"
   id="g21">
      <g
   id="use6"
   transform="translate(18.725,11.795)">
        <path
   style="stroke:none"
   d="m 9.6875,-4.640625 c 0.203125,0 0.453125,0 0.453125,-0.265625 0,-0.265625 -0.25,-0.265625 -0.453125,-0.265625 H 1.234375 c -0.203125,0 -0.453125,0 -0.453125,0.25 0,0.28125 0.234375,0.28125 0.453125,0.28125 z m 0,2.65625 c 0.203125,0 0.453125,0 0.453125,-0.25 0,-0.28125 -0.25,-0.28125 -0.453125,-0.28125 H 1.234375 c -0.203125,0 -0.453125,0 -0.453125,0.265625 0,0.265625 0.234375,0.265625 0.453125,0.265625 z m 0,0"
   id="path21" />
      </g>
    </g>
    <g
   style="fill:#000000;fill-opacity:1"
   id="g22">
      <g
   id="use7"
   transform="translate(33.639309,11.795)">
        <path
   style="stroke:none"
   d="m 4.125,-9.1875 c 0,-0.34375 0,-0.34375 -0.28125,-0.34375 C 3.5,-9.15625 2.78125,-8.625 1.3125,-8.625 v 0.421875 c 0.328125,0 1.046875,0 1.828125,-0.375 v 7.46875 c 0,0.515625 -0.046875,0.6875 -1.296875,0.6875 H 1.390625 V 0 c 0.390625,-0.03125 1.78125,-0.03125 2.25,-0.03125 0.46875,0 1.859375,0 2.234375,0.03125 V -0.421875 H 5.4375 c -1.265625,0 -1.3125,-0.171875 -1.3125,-0.6875 z m 0,0"
   id="path10" />
      </g>
    </g>
  </g>
</g><g
     inkscape:label=""
     transform="translate(37.570839,26.292157)"
     id="g30"><g
   id="g29"
   transform="matrix(0.352778,0,0,0.352778,-0.813329,-0.695193)">
    <g
   style="fill:#000000;fill-opacity:1"
   id="g26">
      <g
   id="g25"
   transform="translate(1.993,11.955)">
        <path
   style="stroke:none"
   d="M 3.75,0.078125 2.234375,-0.53125 C 1.859375,-0.671875 1,-1.015625 1,-1.875 c 0,-1.234375 1.515625,-2.484375 1.8125,-2.484375 0.03125,0 0.15625,0.03125 0.203125,0.046875 0.390625,0.109375 0.75,0.109375 1.015625,0.109375 0.4375,0 1.296875,0 1.296875,-0.421875 0,-0.3125 -0.515625,-0.359375 -1.140625,-0.359375 -0.28125,0 -0.671875,0 -1.1875,0.171875 -0.34375,-0.28125 -0.484375,-0.734375 -0.484375,-1.171875 0,-0.78125 0.515625,-1.90625 1.640625,-2.4375 C 4.421875,-8.125 4.765625,-8.125 5.0625,-8.125 c 0.359375,0 1.234375,0 1.234375,-0.40625 0,-0.359375 -0.6875,-0.359375 -1.140625,-0.359375 -0.296875,0 -0.515625,0 -0.90625,0.0625 C 4.171875,-9 4.15625,-9.015625 4.15625,-9.34375 c 0,-0.25 0.0625,-0.453125 0.0625,-0.5 0,-0.078125 -0.078125,-0.140625 -0.140625,-0.140625 -0.234375,0 -0.234375,0.53125 -0.234375,0.640625 0,0.203125 0.015625,0.40625 0.09375,0.59375 -1.71875,0.5 -2.46875,1.71875 -2.46875,2.65625 0,0.859375 0.5625,1.328125 0.953125,1.546875 C 0.953125,-3.75 0.3125,-2.28125 0.3125,-1.5 c 0,1.234375 1.140625,1.6875 1.65625,1.90625 L 3.25,0.921875 c 0.359375,0.125 0.953125,0.375 1.046875,0.421875 0.15625,0.109375 0.265625,0.28125 0.265625,0.5 0,0.3125 -0.234375,0.796875 -0.734375,0.796875 -0.21875,0 -0.6875,-0.0625 -1.203125,-0.453125 C 2.53125,2.109375 2.515625,2.09375 2.453125,2.09375 2.375,2.09375 2.3125,2.15625 2.3125,2.234375 c 0,0.15625 0.75,0.6875 1.515625,0.6875 0.921875,0 1.484375,-0.890625 1.484375,-1.5 0,-0.453125 -0.25,-0.8125 -0.703125,-1 z M 4.46875,-8.53125 c 0.25,-0.078125 0.515625,-0.078125 0.6875,-0.078125 0.484375,0 0.53125,0.015625 0.8125,0.09375 -0.171875,0.0625 -0.28125,0.109375 -0.890625,0.109375 -0.265625,0 -0.4375,0 -0.609375,-0.125 z m -1.125,3.921875 C 3.6875,-4.6875 4,-4.6875 4.171875,-4.6875 c 0.46875,0 0.5,0.015625 0.8125,0.078125 -0.15625,0.078125 -0.28125,0.125 -0.890625,0.125 -0.34375,0 -0.5,0 -0.75,-0.125 z m 0,0"
   id="path24" />
      </g>
    </g>
    <g
   style="fill:#000000;fill-opacity:1"
   id="g28">
      <g
   id="g27"
   transform="translate(8.1280003,14.468)">
        <path
   style="stroke:none"
   d="m 4.078125,-6.59375 c 0.09375,-0.390625 0.125,-0.515625 1.15625,-0.515625 0.328125,0 0.421875,0 0.421875,-0.203125 0,-0.140625 -0.125,-0.140625 -0.1875,-0.140625 -0.359375,0 -1.25,0.03125 -1.609375,0.03125 -0.328125,0 -1.125,-0.03125 -1.453125,-0.03125 -0.078125,0 -0.203125,0 -0.203125,0.21875 0,0.125 0.09375,0.125 0.3125,0.125 0.015625,0 0.21875,0 0.40625,0.015625 0.203125,0.03125 0.296875,0.03125 0.296875,0.171875 0,0.046875 -0.015625,0.078125 -0.046875,0.21875 L 1.71875,-0.84375 c -0.109375,0.421875 -0.140625,0.5 -1,0.5 -0.1875,0 -0.296875,0 -0.296875,0.21875 C 0.421875,0 0.53125,0 0.71875,0 h 5.046875 c 0.265625,0 0.28125,0 0.34375,-0.1875 L 6.96875,-2.546875 C 7.015625,-2.65625 7.015625,-2.6875 7.015625,-2.6875 c 0,-0.046875 -0.03125,-0.125 -0.140625,-0.125 -0.09375,0 -0.109375,0.046875 -0.171875,0.234375 -0.375,1 -0.859375,2.234375 -2.75,2.234375 H 2.9375 c -0.15625,0 -0.171875,0 -0.25,0 C 2.578125,-0.359375 2.546875,-0.375 2.546875,-0.453125 c 0,-0.03125 0,-0.0625 0.0625,-0.25 z m 0,0"
   id="path7" />
      </g>
    </g>
  </g>
</g><g
     inkscape:label=""
     transform="translate(143.35376,26.292157)"
     id="g37"><g
   id="g36"
   transform="matrix(0.352778,0,0,0.352778,-0.813329,-0.695193)">
    <g
   style="fill:#000000;fill-opacity:1"
   id="g32">
      <g
   id="g31"
   transform="translate(1.993,11.955)">
        <path
   style="stroke:none"
   d="M 3.75,0.078125 2.234375,-0.53125 C 1.859375,-0.671875 1,-1.015625 1,-1.875 c 0,-1.234375 1.515625,-2.484375 1.8125,-2.484375 0.03125,0 0.15625,0.03125 0.203125,0.046875 0.390625,0.109375 0.75,0.109375 1.015625,0.109375 0.4375,0 1.296875,0 1.296875,-0.421875 0,-0.3125 -0.515625,-0.359375 -1.140625,-0.359375 -0.28125,0 -0.671875,0 -1.1875,0.171875 -0.34375,-0.28125 -0.484375,-0.734375 -0.484375,-1.171875 0,-0.78125 0.515625,-1.90625 1.640625,-2.4375 C 4.421875,-8.125 4.765625,-8.125 5.0625,-8.125 c 0.359375,0 1.234375,0 1.234375,-0.40625 0,-0.359375 -0.6875,-0.359375 -1.140625,-0.359375 -0.296875,0 -0.515625,0 -0.90625,0.0625 C 4.171875,-9 4.15625,-9.015625 4.15625,-9.34375 c 0,-0.25 0.0625,-0.453125 0.0625,-0.5 0,-0.078125 -0.078125,-0.140625 -0.140625,-0.140625 -0.234375,0 -0.234375,0.53125 -0.234375,0.640625 0,0.203125 0.015625,0.40625 0.09375,0.59375 -1.71875,0.5 -2.46875,1.71875 -2.46875,2.65625 0,0.859375 0.5625,1.328125 0.953125,1.546875 C 0.953125,-3.75 0.3125,-2.28125 0.3125,-1.5 c 0,1.234375 1.140625,1.6875 1.65625,1.90625 L 3.25,0.921875 c 0.359375,0.125 0.953125,0.375 1.046875,0.421875 0.15625,0.109375 0.265625,0.28125 0.265625,0.5 0,0.3125 -0.234375,0.796875 -0.734375,0.796875 -0.21875,0 -0.6875,-0.0625 -1.203125,-0.453125 C 2.53125,2.109375 2.515625,2.09375 2.453125,2.09375 2.375,2.09375 2.3125,2.15625 2.3125,2.234375 c 0,0.15625 0.75,0.6875 1.515625,0.6875 0.921875,0 1.484375,-0.890625 1.484375,-1.5 0,-0.453125 -0.25,-0.8125 -0.703125,-1 z M 4.46875,-8.53125 c 0.25,-0.078125 0.515625,-0.078125 0.6875,-0.078125 0.484375,0 0.53125,0.015625 0.8125,0.09375 -0.171875,0.0625 -0.28125,0.109375 -0.890625,0.109375 -0.265625,0 -0.4375,0 -0.609375,-0.125 z m -1.125,3.921875 C 3.6875,-4.6875 4,-4.6875 4.171875,-4.6875 c 0.46875,0 0.5,0.015625 0.8125,0.078125 -0.15625,0.078125 -0.28125,0.125 -0.890625,0.125 -0.34375,0 -0.5,0 -0.75,-0.125 z m 0,0"
   id="path30" />
      </g>
    </g>
    <g
   style="fill:#000000;fill-opacity:1"
   id="g35">
      <g
   id="g34"
   transform="translate(8.1280003,14.468)">
        <path
   style="stroke:none"
   d="M 4.09375,-6.703125 C 4.15625,-6.953125 4.1875,-7.0625 4.390625,-7.09375 4.5,-7.109375 4.84375,-7.109375 5.0625,-7.109375 c 0.765625,0 1.984375,0 1.984375,1.078125 0,0.375 -0.171875,1.125 -0.59375,1.546875 -0.296875,0.28125 -0.875,0.640625 -1.84375,0.640625 H 3.375 Z m 1.5625,3 C 6.765625,-3.953125 8.0625,-4.71875 8.0625,-5.8125 8.0625,-6.75 7.078125,-7.453125 5.65625,-7.453125 H 2.546875 c -0.21875,0 -0.328125,0 -0.328125,0.21875 0,0.125 0.109375,0.125 0.3125,0.125 0.015625,0 0.234375,0 0.40625,0.015625 0.203125,0.03125 0.296875,0.03125 0.296875,0.171875 0,0.046875 0,0.078125 -0.03125,0.21875 l -1.46875,5.859375 c -0.109375,0.421875 -0.125,0.5 -1,0.5 -0.1875,0 -0.28125,0 -0.28125,0.21875 0,0.125 0.125,0.125 0.140625,0.125 0.3125,0 1.078125,-0.03125 1.375,-0.03125 0.3125,0 1.078125,0.03125 1.390625,0.03125 0.09375,0 0.21875,0 0.21875,-0.21875 0,-0.125 -0.09375,-0.125 -0.3125,-0.125 -0.390625,0 -0.703125,0 -0.703125,-0.1875 0,-0.0625 0.015625,-0.125 0.03125,-0.1875 L 3.3125,-3.609375 h 1.296875 c 1,0 1.1875,0.609375 1.1875,0.984375 0,0.171875 -0.078125,0.515625 -0.140625,0.765625 -0.078125,0.296875 -0.1875,0.703125 -0.1875,0.921875 0,1.171875 1.3125,1.171875 1.453125,1.171875 0.9375,0 1.3125,-1.09375 1.3125,-1.25 0,-0.125 -0.125,-0.125 -0.125,-0.125 C 8,-1.140625 7.984375,-1.0625 7.96875,-1 c -0.28125,0.8125 -0.75,1 -1,1 C 6.609375,0 6.53125,-0.234375 6.53125,-0.671875 6.53125,-1 6.59375,-1.5625 6.640625,-1.90625 6.65625,-2.0625 6.6875,-2.265625 6.6875,-2.421875 c 0,-0.84375 -0.734375,-1.171875 -1.03125,-1.28125 z m 0,0"
   id="path34" />
      </g>
    </g>
  </g>
</g><g
     inkscape:label=""
     transform="translate(110.47243,20.536894)"
     id="g54"><g
   id="g53"
   transform="matrix(0.352778,0,0,0.352778,-0.813329,-0.651669)">
    <g
   style="fill:#000000;fill-opacity:1"
   id="g39">
      <g
   id="g38"
   transform="translate(1.993,10.816)">
        <path
   style="stroke:none"
   d="m 2.890625,-5.765625 h 1.3125 c 0.265625,0 0.421875,0 0.421875,-0.265625 C 4.625,-6.1875 4.53125,-6.1875 4.25,-6.1875 H 2.984375 l 0.53125,-2.09375 c 0.0625,-0.203125 0.0625,-0.21875 0.0625,-0.328125 0,-0.21875 -0.1875,-0.359375 -0.375,-0.359375 -0.125,0 -0.453125,0.046875 -0.5625,0.5 l -0.5625,2.28125 h -1.34375 c -0.296875,0 -0.421875,0 -0.421875,0.28125 0,0.140625 0.109375,0.140625 0.375,0.140625 h 1.28125 l -0.953125,3.78125 c -0.109375,0.5 -0.15625,0.65625 -0.15625,0.84375 0,0.671875 0.46875,1.28125 1.28125,1.28125 1.4375,0 2.21875,-2.09375 2.21875,-2.1875 0,-0.09375 -0.0625,-0.140625 -0.140625,-0.140625 -0.03125,0 -0.09375,0 -0.109375,0.0625 -0.015625,0.015625 -0.03125,0.03125 -0.140625,0.265625 -0.296875,0.71875 -0.953125,1.71875 -1.78125,1.71875 -0.4375,0 -0.46875,-0.359375 -0.46875,-0.671875 0,-0.015625 0,-0.296875 0.046875,-0.46875 z m 0,0"
   id="path37" />
      </g>
    </g>
    <g
   style="fill:#000000;fill-opacity:1"
   id="g41">
      <g
   id="g40"
   transform="translate(7.0650001,13.329)">
        <path
   style="stroke:none"
   d="M 4.09375,-6.703125 C 4.15625,-6.953125 4.1875,-7.0625 4.390625,-7.09375 4.5,-7.109375 4.84375,-7.109375 5.0625,-7.109375 c 0.765625,0 1.984375,0 1.984375,1.078125 0,0.375 -0.171875,1.125 -0.59375,1.546875 -0.296875,0.28125 -0.875,0.640625 -1.84375,0.640625 H 3.375 Z m 1.5625,3 C 6.765625,-3.953125 8.0625,-4.71875 8.0625,-5.8125 8.0625,-6.75 7.078125,-7.453125 5.65625,-7.453125 H 2.546875 c -0.21875,0 -0.328125,0 -0.328125,0.21875 0,0.125 0.109375,0.125 0.3125,0.125 0.015625,0 0.234375,0 0.40625,0.015625 0.203125,0.03125 0.296875,0.03125 0.296875,0.171875 0,0.046875 0,0.078125 -0.03125,0.21875 l -1.46875,5.859375 c -0.109375,0.421875 -0.125,0.5 -1,0.5 -0.1875,0 -0.28125,0 -0.28125,0.21875 0,0.125 0.125,0.125 0.140625,0.125 0.3125,0 1.078125,-0.03125 1.375,-0.03125 0.3125,0 1.078125,0.03125 1.390625,0.03125 0.09375,0 0.21875,0 0.21875,-0.21875 0,-0.125 -0.09375,-0.125 -0.3125,-0.125 -0.390625,0 -0.703125,0 -0.703125,-0.1875 0,-0.0625 0.015625,-0.125 0.03125,-0.1875 L 3.3125,-3.609375 h 1.296875 c 1,0 1.1875,0.609375 1.1875,0.984375 0,0.171875 -0.078125,0.515625 -0.140625,0.765625 -0.078125,0.296875 -0.1875,0.703125 -0.1875,0.921875 0,1.171875 1.3125,1.171875 1.453125,1.171875 0.9375,0 1.3125,-1.09375 1.3125,-1.25 0,-0.125 -0.125,-0.125 -0.125,-0.125 C 8,-1.140625 7.984375,-1.0625 7.96875,-1 c -0.28125,0.8125 -0.75,1 -1,1 C 6.609375,0 6.53125,-0.234375 6.53125,-0.671875 6.53125,-1 6.59375,-1.5625 6.640625,-1.90625 6.65625,-2.0625 6.6875,-2.265625 6.6875,-2.421875 c 0,-0.84375 -0.734375,-1.171875 -1.03125,-1.28125 z m 0,0"
   id="path39" />
      </g>
    </g>
  </g>
</g><g
     inkscape:label=""
     transform="translate(68.275775,19.519901)"
     id="g60"><g
   id="g59"
   transform="matrix(0.352778,0,0,0.352778,-0.813329,-0.651669)">
    <g
   style="fill:#000000;fill-opacity:1"
   id="g56">
      <g
   id="g55"
   transform="translate(1.993,10.816)">
        <path
   style="stroke:none"
   d="m 2.890625,-5.765625 h 1.3125 c 0.265625,0 0.421875,0 0.421875,-0.265625 C 4.625,-6.1875 4.53125,-6.1875 4.25,-6.1875 H 2.984375 l 0.53125,-2.09375 c 0.0625,-0.203125 0.0625,-0.21875 0.0625,-0.328125 0,-0.21875 -0.1875,-0.359375 -0.375,-0.359375 -0.125,0 -0.453125,0.046875 -0.5625,0.5 l -0.5625,2.28125 h -1.34375 c -0.296875,0 -0.421875,0 -0.421875,0.28125 0,0.140625 0.109375,0.140625 0.375,0.140625 h 1.28125 l -0.953125,3.78125 c -0.109375,0.5 -0.15625,0.65625 -0.15625,0.84375 0,0.671875 0.46875,1.28125 1.28125,1.28125 1.4375,0 2.21875,-2.09375 2.21875,-2.1875 0,-0.09375 -0.0625,-0.140625 -0.140625,-0.140625 -0.03125,0 -0.09375,0 -0.109375,0.0625 -0.015625,0.015625 -0.03125,0.03125 -0.140625,0.265625 -0.296875,0.71875 -0.953125,1.71875 -1.78125,1.71875 -0.4375,0 -0.46875,-0.359375 -0.46875,-0.671875 0,-0.015625 0,-0.296875 0.046875,-0.46875 z m 0,0"
   id="path54" />
      </g>
    </g>
    <g
   style="fill:#000000;fill-opacity:1"
   id="g58">
      <g
   id="g57"
   transform="translate(7.0650001,13.329)">
        <path
   style="stroke:none"
   d="m 4.078125,-6.59375 c 0.09375,-0.390625 0.125,-0.515625 1.15625,-0.515625 0.328125,0 0.421875,0 0.421875,-0.203125 0,-0.140625 -0.125,-0.140625 -0.1875,-0.140625 -0.359375,0 -1.25,0.03125 -1.609375,0.03125 -0.328125,0 -1.125,-0.03125 -1.453125,-0.03125 -0.078125,0 -0.203125,0 -0.203125,0.21875 0,0.125 0.09375,0.125 0.3125,0.125 0.015625,0 0.21875,0 0.40625,0.015625 0.203125,0.03125 0.296875,0.03125 0.296875,0.171875 0,0.046875 -0.015625,0.078125 -0.046875,0.21875 L 1.71875,-0.84375 c -0.109375,0.421875 -0.140625,0.5 -1,0.5 -0.1875,0 -0.296875,0 -0.296875,0.21875 C 0.421875,0 0.53125,0 0.71875,0 h 5.046875 c 0.265625,0 0.28125,0 0.34375,-0.1875 L 6.96875,-2.546875 C 7.015625,-2.65625 7.015625,-2.6875 7.015625,-2.6875 c 0,-0.046875 -0.03125,-0.125 -0.140625,-0.125 -0.09375,0 -0.109375,0.046875 -0.171875,0.234375 -0.375,1 -0.859375,2.234375 -2.75,2.234375 H 2.9375 c -0.15625,0 -0.171875,0 -0.25,0 C 2.578125,-0.359375 2.546875,-0.375 2.546875,-0.453125 c 0,-0.03125 0,-0.0625 0.0625,-0.25 z m 0,0"
   id="path56" />
      </g>
    </g>
  </g>
</g><path
     style="fill:none;stroke:#8d8c8c;stroke-width:0.499999;stroke-linecap:round;stroke-linejoin:round;stroke-dasharray:1.49999696, 1.49999696;stroke-dashoffset:0.64999868;stroke-opacity:1"
     d="m 57.974552,28.922451 c 4.855413,-0.153128 9.710732,-0.306253 13.821546,-0.395504 4.110815,-0.08925 7.4768,-0.11462 10.842854,-0.13999"
     id="path62"
     inkscape:path-effect="#path-effect62"
     inkscape:original-d="m 57.974552,28.922451 c 4.855413,-0.153128 9.710732,-0.306253 14.566242,-0.459384 3.366119,-0.02537 6.732104,-0.05074 10.098158,-0.07611"
     sodipodi:nodetypes="ccc"
     transform="matrix(0.76592787,0,0,1.0703511,16.550589,-2.0166997)" /><use
     x="0"
     y="0"
     xlink:href="#path62"
     id="use65"
     transform="translate(44.45)" /><g
     inkscape:label=""
     transform="translate(153.16633,16.709279)"
     id="g71"><g
   id="g70"
   transform="matrix(0.352778,0,0,0.352778,-0.934597,-0.550554)">
    <g
   style="fill:#000000;fill-opacity:1"
   id="g69">
      <g
   id="g68"
   transform="translate(1.993,11.795)">
        <path
   style="stroke:none"
   d="m 6.1875,-9.984375 c -0.109375,-0.203125 -0.140625,-0.25 -0.328125,-0.25 -0.21875,0 -0.25,0.04687 -0.34375,0.25 L 0.71875,-0.28125 C 0.6875,-0.25 0.65625,-0.15625 0.65625,-0.09375 0.65625,-0.015625 0.671875,0 0.96875,0 h 9.765625 c 0.28125,0 0.296875,-0.015625 0.296875,-0.09375 0,-0.0625 -0.03125,-0.15625 -0.0625,-0.1875 z m -0.78125,1.0625 3.921875,7.9375 H 1.5 Z m 0,0"
   id="path67" />
      </g>
    </g>
  </g>
</g><g
     inkscape:label=""
     transform="translate(149.41745,37.431443)"
     id="g46"><g
   id="g45"
   transform="matrix(0.352778,0,0,0.352778,-1.12201,-0.550906)">
    <g
   style="fill:#000000;fill-opacity:1"
   id="g42">
      <g
   id="g33"
   transform="translate(1.993,11.796)">
        <path
   style="stroke:none"
   d="m 9.453125,-3.296875 c 0.25,0 0.5,0 0.5,-0.28125 0,-0.296875 -0.25,-0.296875 -0.5,-0.296875 H 1.6875 c -0.234375,0 -0.5,0 -0.5,0.296875 0,0.28125 0.265625,0.28125 0.5,0.28125 z m 0,0"
   id="path25" />
      </g>
    </g>
    <g
   style="fill:#000000;fill-opacity:1"
   id="g44">
      <g
   id="g43"
   transform="translate(13.151,11.796)">
        <path
   style="stroke:none"
   d="m 6.1875,-9.984375 c -0.109375,-0.203125 -0.140625,-0.25 -0.328125,-0.25 -0.21875,0 -0.25,0.04687 -0.34375,0.25 L 0.71875,-0.28125 C 0.6875,-0.25 0.65625,-0.15625 0.65625,-0.09375 0.65625,-0.015625 0.671875,0 0.96875,0 h 9.765625 c 0.28125,0 0.296875,-0.015625 0.296875,-0.09375 0,-0.0625 -0.03125,-0.15625 -0.0625,-0.1875 z m -0.78125,1.0625 3.921875,7.9375 H 1.5 Z m 0,0"
   id="path42" />
      </g>
    </g>
  </g>
</g><g
     inkscape:label=""
     transform="translate(25.063254,37.431443)"
     id="g52"><g
   id="g51"
   transform="matrix(0.352778,0,0,0.352778,-1.12201,-0.550906)">
    <g
   style="fill:#000000;fill-opacity:1"
   id="g48">
      <g
   id="g47"
   transform="translate(1.993,11.796)">
        <path
   style="stroke:none"
   d="m 9.453125,-3.296875 c 0.25,0 0.5,0 0.5,-0.28125 0,-0.296875 -0.25,-0.296875 -0.5,-0.296875 H 1.6875 c -0.234375,0 -0.5,0 -0.5,0.296875 0,0.28125 0.265625,0.28125 0.5,0.28125 z m 0,0"
   id="path46" />
      </g>
    </g>
    <g
   style="fill:#000000;fill-opacity:1"
   id="g50">
      <g
   id="g49"
   transform="translate(13.151,11.796)">
        <path
   style="stroke:none"
   d="m 6.1875,-9.984375 c -0.109375,-0.203125 -0.140625,-0.25 -0.328125,-0.25 -0.21875,0 -0.25,0.04687 -0.34375,0.25 L 0.71875,-0.28125 C 0.6875,-0.25 0.65625,-0.15625 0.65625,-0.09375 0.65625,-0.015625 0.671875,0 0.96875,0 h 9.765625 c 0.28125,0 0.296875,-0.015625 0.296875,-0.09375 0,-0.0625 -0.03125,-0.15625 -0.0625,-0.1875 z m -0.78125,1.0625 3.921875,7.9375 H 1.5 Z m 0,0"
   id="path48" />
      </g>
    </g>
  </g>
</g></svg>
